<?xml version="1.0" encoding="UTF-8" standalone="no"?>
<!-- Created with Inkscape (http://www.inkscape.org/) -->

<svg
   xmlns:dc="http://purl.org/dc/elements/1.1/"
   xmlns:cc="http://creativecommons.org/ns#"
   xmlns:rdf="http://www.w3.org/1999/02/22-rdf-syntax-ns#"
   xmlns:svg="http://www.w3.org/2000/svg"
   xmlns="http://www.w3.org/2000/svg"
   xmlns:sodipodi="http://sodipodi.sourceforge.net/DTD/sodipodi-0.dtd"
   xmlns:inkscape="http://www.inkscape.org/namespaces/inkscape"
   width="210mm"
   height="297mm"
   viewBox="0 0 744.09448819 1052.3622047"
   id="svg2"
   version="1.1"
   inkscape:version="0.91 r13725"
   sodipodi:docname="stop-motion.svg">
  <defs
     id="defs4" />
  <sodipodi:namedview
     id="base"
     pagecolor="#ffffff"
     bordercolor="#666666"
     borderopacity="1.0"
     inkscape:pageopacity="0.0"
     inkscape:pageshadow="2"
     inkscape:zoom="1.4142136"
     inkscape:cx="214.30313"
     inkscape:cy="626.98061"
     inkscape:document-units="px"
     inkscape:current-layer="layer1"
     showgrid="false"
     inkscape:window-width="1920"
     inkscape:window-height="1056"
     inkscape:window-x="0"
     inkscape:window-y="24"
     inkscape:window-maximized="1" />
  <metadata
     id="metadata7">
    <rdf:RDF>
      <cc:Work
         rdf:about="">
        <dc:format>image/svg+xml</dc:format>
        <dc:type
           rdf:resource="http://purl.org/dc/dcmitype/StillImage" />
        <dc:title></dc:title>
      </cc:Work>
    </rdf:RDF>
  </metadata>
  <g
     inkscape:label="Layer 1"
     inkscape:groupmode="layer"
     id="layer1">
    <circle
       style="fill:#4f5d73;stroke:none;stroke-width:2;stroke-linecap:butt;stroke-linejoin:round;stroke-miterlimit:4;stroke-dasharray:none;fill-opacity:1"
       id="path4147"
       r="64.144691"
       cy="524.55756"
       cx="320.72342" />
    <path
       style="fill:#ffffff;stroke:none;stroke-width:2;stroke-linecap:butt;stroke-linejoin:round;stroke-miterlimit:4;stroke-dasharray:none;fill-opacity:1"
       id="path4161"
       sodipodi:type="arc"
       sodipodi:cx="299.51025"
       sodipodi:cy="501.32397"
       sodipodi:rx="20.203051"
       sodipodi:ry="20.203051"
       sodipodi:start="6.2506349"
       sodipodi:end="6.2491165"
       sodipodi:open="true"
       d="m 319.7026,500.66647 a 20.203051,20.203051 0 0 1 -19.52718,20.8496 20.203051,20.203051 0 0 1 -20.85701,-19.51926 20.203051,20.203051 0 0 1 19.51135,-20.86442 20.203051,20.203051 0 0 1 20.87182,19.50342" />
    <path
       d="m 350.08413,505.36016 a 15.657364,15.657364 0 0 1 -15.13357,16.15844 15.657364,15.657364 0 0 1 -16.16418,-15.12744 15.657364,15.657364 0 0 1 15.12129,-16.16992 15.657364,15.657364 0 0 1 16.17567,15.11516"
       sodipodi:open="true"
       sodipodi:end="6.2491165"
       sodipodi:start="6.2506349"
       sodipodi:ry="15.657364"
       sodipodi:rx="15.657364"
       sodipodi:cy="505.86972"
       sodipodi:cx="334.43506"
       sodipodi:type="arc"
       id="path4163"
       style="fill:#ffffff;stroke:none;stroke-width:2;stroke-linecap:butt;stroke-linejoin:round;stroke-miterlimit:4;stroke-dasharray:none;fill-opacity:1" />
    <path
       style="fill:#ffffff;fill-rule:evenodd;stroke:none;stroke-width:2;stroke-linecap:butt;stroke-linejoin:miter;stroke-miterlimit:4;stroke-dasharray:none;stroke-opacity:1;fill-opacity:1"
       d="m 293.43827,520.85269 -8.13982,0 c 0,0 -0.79158,-0.0213 -1.51523,0.56821 -0.72368,0.58951 -0.69448,1.52312 -0.69448,1.52312 l 0,2.06998 -6.07266,-0.004 c 0,0 -0.72933,-0.0248 -1.45298,0.56468 -0.72365,0.58951 -0.69448,1.52312 -0.69448,1.52312 l 0.058,15.36392 c 0,0 -0.0213,0.79158 0.56821,1.51523 0.58951,0.72365 1.52312,0.69448 1.52312,0.69448 l 6.41211,0 -0.002,13.75413 c 0,0 -0.023,0.70321 0.56647,1.42686 0.58951,0.72365 1.52312,0.69448 1.52312,0.69448 l 63.36392,-0.058 c 0,0 0.79158,0.0213 1.51523,-0.56821 0.72365,-0.58951 0.69138,-1.4868 0.69138,-1.4868 l -0.003,-10.00068 7.82821,0 c 0,0 5.48518,3.97746 7.89534,4.06586 l 1.68475,-2.7e-4 c 0,0 0.79158,0.0213 1.51523,-0.56821 0.72368,-0.58951 0.69448,-1.52312 0.69448,-1.52312 l -0.058,-23.42501 c 0,0 0.0213,-0.79158 -0.56821,-1.51523 -0.58951,-0.72368 -1.52312,-0.69448 -1.52312,-0.69448 l -2.27275,-5.9e-4 c -2.38648,0.0884 -6.8059,4.06586 -6.8059,4.06586 l -8.44801,0 0.003,-5.88907 c 0,0 0.0244,-0.73608 -0.56509,-1.45973 -0.58951,-0.72365 -1.52312,-0.69448 -1.52312,-0.69448 l -7.01193,0"
       id="path4184"
       inkscape:connector-curvature="0"
       sodipodi:nodetypes="czcccczcczccczcczccczcczccccccczcc" />
  </g>
</svg>
