<?xml version="1.0" encoding="utf-8"?>
<!-- Generator: Adobe Illustrator 24.1.1, SVG Export Plug-In . SVG Version: 6.00 Build 0)  -->
<svg version="1.1" id="Ebene_1" xmlns="http://www.w3.org/2000/svg" xmlns:xlink="http://www.w3.org/1999/xlink" x="0px" y="0px"
	 viewBox="0 0 1734.1 275.7" style="enable-background:new 0 0 1734.1 275.7;" xml:space="preserve">
<style type="text/css">
	.st0{fill:#00A3D3;}
	.st1{opacity:0.36;fill:#FFFFFF;enable-background:new    ;}
	.st2{opacity:0.69;fill:#FFFFFF;enable-background:new    ;}
	.st3{fill:#FFFFFF;}
</style>
<g id="Ebene_1_1_">
	<path class="st0" d="M308.3,11.5h-286c-4.9,0-8.9,4-8.9,8.9v235.8c0,4.9,4,8.9,8.9,8.9h286c4.9,0,8.9-4,8.9-8.9V20.4
		C317.2,15.5,313.2,11.5,308.3,11.5z M222.4,44.8V29.3h29.8v15.5H222.4z M204.6,44.8h-29.8V29.3h29.8V44.8z M156.9,44.8h-29.8V29.3
		h29.8V44.8z M109.3,44.8H79.4V29.3h29.8V44.8z M109.3,231.8v15.5H79.4v-15.5H109.3z M127.1,231.8h29.8v15.5h-29.8V231.8z
		 M174.7,231.8h29.8v15.5h-29.8V231.8z M222.4,231.8h29.8v15.5h-29.8V231.8z M299.4,44.8h-29.3V29.3h29.3V44.8z M61.6,29.3v15.5
		H31.2V29.3H61.6z M31.2,231.8h30.4v15.5H31.2V231.8z M270.1,247.3v-15.5h29.3v15.5H270.1z"/>
</g>
<g id="Ebene_2_1_">
	<rect x="31.4" y="68.1" class="st1" width="77.7" height="142.4"/>
	<rect x="127.1" y="68.1" class="st2" width="77.7" height="142.4"/>
	<rect x="221.6" y="68.1" class="st3" width="77.7" height="142.4"/>
</g>
<g>
	<path d="M468.4,53c8.1,3.2,16,8.3,23.7,15.1l-13,14.5c-6.5-5.1-12.8-8.9-19.1-11.3c-6.2-2.4-12.9-3.6-20.1-3.6
		c-9,0-16.4,2.1-22.2,6.2C412,78,409.1,84,409.1,92c0,5,1,9.2,3,12.6c2,3.4,5.7,6.5,11.1,9.3c5.4,2.8,13.2,5.8,23.5,9
		c10.8,3.3,19.8,6.9,26.9,10.7c7.1,3.8,12.9,9.1,17.3,15.8c4.4,6.7,6.6,15.2,6.6,25.5c0,10-2.5,18.8-7.4,26.4
		c-4.9,7.6-12,13.6-21.2,17.9s-20.1,6.5-32.8,6.5c-23.8,0-43.2-7.4-58.3-22.2l13-14.5c7,5.6,14,9.9,21.2,12.8
		c7.1,2.9,15.1,4.4,23.9,4.4c10.6,0,19.4-2.6,26.4-7.8c7-5.2,10.5-12.8,10.5-22.8c0-5.6-1.1-10.3-3.2-14.1
		c-2.2-3.7-5.9-7.1-11.1-10.1s-12.8-6-22.8-9c-17.6-5.3-30.5-11.7-38.6-19.2C389,115.9,385,105.8,385,93c0-8.6,2.3-16.4,6.9-23.2
		c4.6-6.8,11-12.1,19.2-15.9c8.2-3.8,17.6-5.7,28-5.7C450.5,48.2,460.3,49.8,468.4,53z"/>
	<path d="M597.5,216.8c-8.6,6-18.4,9-29.4,9c-11.1,0-19.8-3.2-26-9.6c-6.2-6.4-9.3-15.7-9.3-27.8v-79.2h-22.9V91.5h22.9V61.9
		l22.9-2.7v32.4h31.1l-2.5,17.7h-28.7v78.2c0,6.8,1.2,11.8,3.6,14.8c2.4,3.1,6.4,4.6,12.1,4.6c5.1,0,11-1.7,17.4-5.2L597.5,216.8z"
		/>
	<path d="M709.7,107c10.2,12.3,15.3,29,15.3,50.1c0,13.6-2.3,25.6-7,36c-4.7,10.4-11.4,18.4-20.2,24.2c-8.8,5.7-19.3,8.6-31.4,8.6
		c-18.4,0-32.8-6.1-43.1-18.4c-10.3-12.3-15.4-29-15.4-50.1c0-13.6,2.3-25.6,7-36c4.6-10.4,11.4-18.4,20.2-24.2
		c8.8-5.7,19.3-8.6,31.6-8.6C685.2,88.5,699.5,94.7,709.7,107z M632.6,157.3c0,33.4,11.3,50.1,33.9,50.1c22.6,0,33.9-16.8,33.9-50.3
		c0-33.4-11.2-50.1-33.6-50.1C644,107,632.6,123.7,632.6,157.3z"/>
	<path d="M860.1,106.5c7.8,12,11.7,28.8,11.7,50.6c0,20.6-4.5,37.2-13.5,49.8c-9,12.6-21.7,18.9-38.1,18.9c-14.6,0-26.1-5-34.4-15
		v62.3l-22.9,2.7V91.5h19.7l1.7,17.7c4.8-6.6,10.6-11.7,17.4-15.3c6.8-3.6,14-5.4,21.4-5.4C840,88.5,852.3,94.5,860.1,106.5z
		 M847.1,157c0-33.6-9.9-50.3-29.6-50.3c-6.5,0-12.4,1.9-17.7,5.7c-5.3,3.8-10,8.7-14,14.7v64c3.3,5.2,7.5,9.1,12.5,11.8
		c5,2.7,10.5,4.1,16.4,4.1C836.3,207.1,847.1,190.4,847.1,157z"/>
	<path d="M1131.7,222.8h-22.9l-6-77.5c-2.5-30.4-3.9-53.7-4.2-70l-37.1,128.1h-22.2l-39.1-128.3c0,20.8-1.1,44.8-3.2,72l-5.7,75.7
		h-22.4l14.2-171.7h31.9l36.1,124.8l34.4-124.8h32.1L1131.7,222.8z"/>
	<path d="M1263.1,107c10.2,12.3,15.3,29,15.3,50.1c0,13.6-2.3,25.6-7,36c-4.7,10.4-11.4,18.4-20.2,24.2c-8.8,5.7-19.3,8.6-31.4,8.6
		c-18.4,0-32.8-6.1-43.1-18.4c-10.3-12.3-15.4-29-15.4-50.1c0-13.6,2.3-25.6,7-36c4.6-10.4,11.4-18.4,20.2-24.2
		c8.8-5.7,19.3-8.6,31.6-8.6C1238.6,88.5,1252.9,94.7,1263.1,107z M1186,157.3c0,33.4,11.3,50.1,33.9,50.1
		c22.6,0,33.9-16.8,33.9-50.3c0-33.4-11.2-50.1-33.6-50.1C1197.4,107,1186,123.7,1186,157.3z"/>
	<path d="M1382.6,216.8c-8.6,6-18.4,9-29.4,9c-11.1,0-19.8-3.2-26-9.6c-6.2-6.4-9.3-15.7-9.3-27.8v-79.2h-22.9V91.5h22.9V61.9
		l22.9-2.7v32.4h31.1l-2.5,17.7h-28.7v78.2c0,6.8,1.2,11.8,3.6,14.8c2.4,3.1,6.4,4.6,12.1,4.6c5.1,0,11-1.7,17.4-5.2L1382.6,216.8z"
		/>
	<path d="M1429.2,33c3,3,4.5,6.7,4.5,11.2s-1.5,8.2-4.5,11.1c-3,2.9-6.9,4.4-11.7,4.4c-4.7,0-8.5-1.5-11.5-4.4
		c-3-2.9-4.5-6.6-4.5-11.1s1.5-8.2,4.5-11.2c3-3,6.8-4.5,11.5-4.5C1422.3,28.5,1426.2,30,1429.2,33z M1429.2,91.5v131.3h-22.9V91.5
		H1429.2z"/>
	<path d="M1568.8,107c10.2,12.3,15.3,29,15.3,50.1c0,13.6-2.3,25.6-7,36c-4.7,10.4-11.4,18.4-20.2,24.2c-8.8,5.7-19.3,8.6-31.4,8.6
		c-18.4,0-32.8-6.1-43.1-18.4c-10.3-12.3-15.4-29-15.4-50.1c0-13.6,2.3-25.6,7-36c4.6-10.4,11.4-18.4,20.2-24.2
		c8.8-5.7,19.3-8.6,31.6-8.6C1544.3,88.5,1558.6,94.7,1568.8,107z M1491.7,157.3c0,33.4,11.3,50.1,33.9,50.1
		c22.6,0,33.9-16.8,33.9-50.3c0-33.4-11.2-50.1-33.6-50.1C1503.1,107,1491.7,123.7,1491.7,157.3z"/>
	<path d="M1711.8,99.2c6.7,7.1,10.1,16.9,10.1,29.4v94.2H1699v-90.9c0-9.3-1.7-15.9-5.2-19.7c-3.5-3.8-8.6-5.7-15.4-5.7
		c-7,0-13.1,2-18.4,6c-5.3,4-10.3,9.7-14.9,17.2v93.2H1622V91.5h19.7l2,19.4c4.6-7,10.4-12.5,17.3-16.4c6.9-4,14.5-6,22.8-6
		C1695.8,88.5,1705.1,92.1,1711.8,99.2z"/>
</g>
</svg>
