<?xml version="1.0" encoding="utf-8"?>
<!-- Generator: Adobe Illustrator 24.1.1, SVG Export Plug-In . SVG Version: 6.00 Build 0)  -->
<svg version="1.1" id="Capa_1" xmlns="http://www.w3.org/2000/svg" xmlns:xlink="http://www.w3.org/1999/xlink" x="0px" y="0px"
	 viewBox="0 0 512 512" style="enable-background:new 0 0 512 512;" xml:space="preserve">
<style type="text/css">
	.st0{fill:#FFFFFF;}
	.st1{fill:#FFFFFF;stroke:#FFFFFF;stroke-width:8;stroke-linecap:round;stroke-miterlimit:10;}
</style>
<g id="XMLID_1184_">
	<g id="XMLID_176_">
		<path id="XMLID_714_" class="st0" d="M451,126.1h-28.8l-33.1-56c-1.7-2.9-4.8-4.7-8.2-4.7H249.6c-3.4,0-6.5,1.8-8.2,4.7l-33.1,56
			h-54.1v-11.4c0-18.8-15.3-34.1-34.1-34.1S86,95.9,86,114.7v11.4H62c-26.5,0-48,21.6-48,48v233.6c0,26.5,21.6,48,48,48H451
			c26.5,0,48-21.6,48-48V174.1C499,147.6,477.4,126.1,451,126.1L451,126.1z M255,84.4h120.5l24.6,41.7H230.3L255,84.4z M104.9,114.7
			c0-8.4,6.8-15.2,15.2-15.2s15.2,6.8,15.2,15.2v11.4h-30.3V114.7z M480.1,407.7c0,16-13.1,29.1-29.1,29.1H62
			c-16,0-29.1-13.1-29.1-29.1V174.1c0-16,13.1-29.1,29.1-29.1H451c16,0,29.1,13.1,29.1,29.1L480.1,407.7L480.1,407.7z"/>
	</g>
</g>
<path class="st1" d="M357.3,234.2l-6.8,12.7c-24.3-52.2-86.4-74.8-138.6-50.5c-20.5,9.5-37.3,25.5-47.9,45.4
	c-1.7,3.2-0.5,7.1,2.7,8.8c3.2,1.7,7.1,0.5,8.8-2.7c23.7-44.5,79-61.3,123.5-37.5c16.1,8.6,29.2,21.8,37.7,37.9l-9.3-5
	c-3.2-1.7-7.1-0.5-8.8,2.7s-0.5,7.1,2.7,8.8l25.2,13.5c3.2,1.7,7.1,0.5,8.8-2.7l13.5-25.3c1.7-3.2,0.5-7.1-2.7-8.8
	C363,229.8,359,231,357.3,234.2L357.3,234.2z"/>
<path class="st1" d="M336.5,333.9c-23.7,44.5-79,61.3-123.5,37.5c-16.1-8.6-29.2-21.8-37.7-37.9l9.3,5c3.2,1.7,7.1,0.5,8.8-2.7
	c1.7-3.2,0.5-7.1-2.7-8.8l-25.2-13.5c-3.2-1.7-7.1-0.5-8.8,2.7l-13.5,25.3c-1.7,3.2-0.5,7.1,2.7,8.8c3.2,1.7,7.1,0.5,8.8-2.7
	l6.8-12.7c24.3,52.2,86.4,74.8,138.6,50.5c20.5-9.5,37.3-25.5,47.9-45.4c1.7-3.2,0.5-7.1-2.7-8.8
	C342.2,329.5,338.2,330.7,336.5,333.9z"/>
</svg>
