<?xml version="1.0" encoding="utf-8"?>
<!-- Generator: Adobe Illustrator 24.1.1, SVG Export Plug-In . SVG Version: 6.00 Build 0)  -->
<svg version="1.1" id="Capa_1" xmlns="http://www.w3.org/2000/svg" xmlns:xlink="http://www.w3.org/1999/xlink" x="0px" y="0px"
	 viewBox="0 0 512 512" style="enable-background:new 0 0 512 512;" xml:space="preserve">
<g id="XMLID_1184_">
	<g id="XMLID_176_">
		<path id="XMLID_178_" d="M315.2,171.6c-15.9,0-31.4,3.1-46,9.2c-4.8,2-7.1,7.6-5.1,12.4c2,4.8,7.6,7.1,12.4,5.1
			c12.3-5.1,25.3-7.7,38.7-7.7c55.4,0,100.4,45,100.4,100.4s-45,100.4-100.4,100.4s-100.4-45-100.4-100.4c0-13.4,2.6-26.4,7.7-38.6
			c2-4.8-0.3-10.4-5.1-12.4c-4.8-2-10.4,0.3-12.4,5.1c-6.1,14.6-9.2,30-9.2,45.9c0,65.8,53.5,119.4,119.4,119.4
			s119.4-53.5,119.4-119.4S381.1,171.6,315.2,171.6L315.2,171.6z"/>
		<path id="XMLID_711_" d="M315.2,368.6c42.8,0,77.7-34.8,77.7-77.7s-34.8-77.7-77.7-77.7s-77.7,34.8-77.7,77.7
			S272.4,368.6,315.2,368.6z M315.2,232.2c32.4,0,58.7,26.3,58.7,58.7s-26.3,58.7-58.7,58.7s-58.7-26.3-58.7-58.7
			S282.9,232.2,315.2,232.2z"/>
		<path id="XMLID_714_" d="M451,126.1h-28.8l-33.1-56c-1.7-2.9-4.8-4.7-8.2-4.7H249.6c-3.4,0-6.5,1.8-8.2,4.7l-33.1,56h-54.1v-11.4
			c0-18.8-15.3-34.1-34.1-34.1S86,95.9,86,114.7v11.4H62c-26.5,0-48,21.6-48,48v233.6c0,26.5,21.6,48,48,48H451
			c26.5,0,48-21.6,48-48V174.1C499,147.6,477.4,126.1,451,126.1L451,126.1z M255,84.4h120.5l24.6,41.7H230.3L255,84.4z M104.9,114.7
			c0-8.4,6.8-15.2,15.2-15.2s15.2,6.8,15.2,15.2v11.4h-30.3V114.7z M480.1,407.7c0,16-13.1,29.1-29.1,29.1H62
			c-16,0-29.1-13.1-29.1-29.1V174.1c0-16,13.1-29.1,29.1-29.1H451c16,0,29.1,13.1,29.1,29.1L480.1,407.7L480.1,407.7z"/>
		<path id="XMLID_717_" d="M315.2,272.4c10.2,0,18.5,8.3,18.5,18.5c0,5.2,4.2,9.5,9.5,9.5s9.5-4.2,9.5-9.5
			c0-20.6-16.8-37.4-37.4-37.4c-5.2,0-9.5,4.2-9.5,9.5C305.8,268.2,310,272.4,315.2,272.4z"/>
		<path id="XMLID_730_" d="M144.7,203.8H95.5c-5.2,0-9.5,4.2-9.5,9.5c0,5.2,4.2,9.5,9.5,9.5h49.3c5.2,0,9.5-4.2,9.5-9.5
			S150,203.8,144.7,203.8z"/>
		<path id="XMLID_731_" d="M237.5,222.7c2.5,0,4.9-1,6.7-2.8s2.8-4.2,2.8-6.7c0-2.5-1-4.9-2.8-6.7c-1.8-1.8-4.2-2.8-6.7-2.8
			s-4.9,1-6.7,2.8c-1.8,1.8-2.8,4.2-2.8,6.7c0,2.5,1,4.9,2.8,6.7C232.6,221.7,235,222.7,237.5,222.7z"/>
	</g>
</g>
</svg>
