<svg height="512pt" viewBox="0 -10 512.00025 512" width="512pt" xmlns="http://www.w3.org/2000/svg"><path d="m512 122.039062v139c0 11.046876-8.953125 20-20 20s-20-8.953124-20-20v-79l-357 .003907c-11.046875 0-20-8.953125-20-20s8.953125-20 20-20l357-.003907v-20c0-5.34375-2.078125-10.363281-5.855469-14.140624-3.777343-3.777344-8.800781-5.855469-14.140625-5.855469l-236.003906-.003907c-11.046875 0-20-8.957031-20-20v-2.015624c0-22.050782-17.941406-39.992188-39.992188-40l-76.015624-.023438c-22.050782 0-39.992188 17.945312-39.992188 40v132.933594c0 .039062.003906.074218.003906.109375l-.003906 176.03125c0 22.058593 17.945312 40 40 40h205c11.046875 0 20 8.953125 20 20s-8.953125 20-20 20h-205c-44.113281 0-80-35.886719-80-80l.00390625-121.960938c0-.027343-.00390625-.050781-.00390625-.074219v-187.039062c0-44.113281 35.886719-80 80-80l76.019531.0234375c37.917969.0078125 69.757813 26.5429685 77.941407 62.0156245l218.039062.003907h.007812c16.023438 0 31.085938 6.238281 42.417969 17.566406 11.332031 11.332031 17.574219 26.402344 17.574219 42.429687zm-5.859375 204.855469c-7.808594-7.808593-20.472656-7.808593-28.28125 0l-50.859375 50.859375-50.859375-50.859375c-7.808594-7.808593-20.472656-7.808593-28.28125 0-7.8125 7.8125-7.8125 20.472657 0 28.285157l50.855469 50.859374-50.855469 50.855469c-7.8125 7.8125-7.8125 20.472657 0 28.285157 3.902344 3.90625 9.023437 5.859374 14.140625 5.859374s10.238281-1.953124 14.140625-5.859374l50.859375-50.859376 50.859375 50.859376c3.902344 3.90625 9.023437 5.859374 14.140625 5.859374s10.238281-1.953124 14.140625-5.859374c7.8125-7.8125 7.8125-20.472657 0-28.285157l-50.855469-50.855469 50.855469-50.859374c7.8125-7.8125 7.8125-20.472657 0-28.285157zm0 0"/></svg>