<?xml version="1.0" encoding="iso-8859-1"?>
<!-- Generator: Adobe Illustrator 19.0.0, SVG Export Plug-In . SVG Version: 6.00 Build 0)  -->
<svg version="1.1" id="Capa_1" xmlns="http://www.w3.org/2000/svg" xmlns:xlink="http://www.w3.org/1999/xlink" x="0px" y="0px"
	 viewBox="0 0 511.999 511.999" style="enable-background:new 0 0 511.999 511.999;" xml:space="preserve">
<g>
	<g>
		<path d="M200.907,97.163c-2.425-1.903-5.592-2.587-8.584-1.854L7.652,140.485c-0.077,0.019-0.149,0.047-0.225,0.067
			c-0.205,0.055-0.408,0.113-0.607,0.182c-0.127,0.043-0.25,0.089-0.374,0.137c-0.179,0.068-0.355,0.141-0.529,0.219
			c-0.141,0.063-0.278,0.131-0.416,0.2c-0.147,0.074-0.291,0.151-0.434,0.232c-0.152,0.086-0.3,0.178-0.447,0.271
			c-0.12,0.077-0.24,0.157-0.357,0.24c-0.153,0.107-0.3,0.218-0.446,0.333c-0.106,0.084-0.211,0.17-0.313,0.258
			c-0.142,0.122-0.278,0.246-0.412,0.375c-0.101,0.097-0.201,0.197-0.298,0.298c-0.121,0.126-0.239,0.256-0.353,0.388
			c-0.1,0.116-0.198,0.235-0.293,0.355c-0.099,0.126-0.196,0.255-0.288,0.385c-0.097,0.138-0.192,0.277-0.282,0.419
			c-0.079,0.123-0.155,0.249-0.228,0.375c-0.09,0.156-0.176,0.313-0.257,0.473c-0.064,0.125-0.125,0.252-0.184,0.38
			c-0.075,0.164-0.146,0.329-0.212,0.499c-0.054,0.138-0.104,0.277-0.153,0.417c-0.055,0.161-0.106,0.322-0.154,0.486
			c-0.046,0.162-0.087,0.324-0.125,0.488c-0.034,0.147-0.066,0.293-0.093,0.441c-0.035,0.191-0.063,0.383-0.088,0.575
			c-0.016,0.129-0.032,0.258-0.043,0.388c-0.018,0.212-0.027,0.426-0.032,0.64C0.01,150.084,0,150.159,0,150.236v300.223
			c0,0.048,0.007,0.095,0.007,0.144c0.003,0.2,0.015,0.401,0.031,0.602c0.011,0.151,0.022,0.3,0.04,0.449
			c0.019,0.16,0.046,0.319,0.073,0.48c0.031,0.188,0.065,0.374,0.107,0.558c0.012,0.051,0.017,0.102,0.029,0.154
			c0.025,0.101,0.059,0.198,0.086,0.297c0.041,0.147,0.08,0.294,0.128,0.439c0.054,0.166,0.116,0.326,0.179,0.488
			c0.047,0.122,0.089,0.245,0.141,0.363c0.245,0.57,0.54,1.109,0.877,1.612c0.03,0.045,0.064,0.088,0.095,0.133
			c0.144,0.207,0.293,0.408,0.45,0.602c0.052,0.064,0.107,0.127,0.162,0.19c0.143,0.168,0.29,0.33,0.443,0.487
			c0.069,0.07,0.139,0.14,0.21,0.208c0.146,0.141,0.295,0.277,0.45,0.409c0.082,0.071,0.165,0.142,0.249,0.21
			c0.152,0.121,0.307,0.236,0.465,0.348c0.091,0.065,0.182,0.133,0.275,0.196c0.181,0.12,0.367,0.23,0.556,0.337
			c0.137,0.078,0.275,0.154,0.416,0.226c0.191,0.097,0.382,0.194,0.579,0.279c0.117,0.051,0.239,0.094,0.359,0.142
			c0.166,0.064,0.331,0.128,0.501,0.184c0.12,0.039,0.24,0.073,0.36,0.108c0.186,0.053,0.373,0.101,0.563,0.145
			c0.105,0.024,0.211,0.047,0.318,0.068c0.235,0.045,0.473,0.08,0.712,0.108c0.067,0.008,0.133,0.019,0.2,0.025
			c0.32,0.031,0.643,0.052,0.969,0.052c0.071,0,0.145-0.011,0.216-0.013c0.304-0.006,0.605-0.021,0.901-0.054
			c0.103-0.011,0.207-0.032,0.31-0.047c0.283-0.04,0.563-0.089,0.838-0.153c0.042-0.01,0.085-0.013,0.128-0.023l184.671-45.187
			c4.494-1.099,7.653-5.126,7.653-9.751V105.06C204.748,101.978,203.332,99.065,200.907,97.163z M184.671,397.394L20.078,437.667
			V158.115l164.593-40.264V397.394z"/>
	</g>
</g>
<g>
	<g>
		<path d="M511.987,150.006c-0.003-0.215-0.012-0.429-0.031-0.641c-0.011-0.13-0.027-0.258-0.043-0.386
			c-0.024-0.194-0.052-0.387-0.088-0.577c-0.027-0.149-0.059-0.294-0.093-0.44c-0.038-0.164-0.079-0.326-0.125-0.488
			c-0.047-0.164-0.098-0.325-0.154-0.486c-0.048-0.141-0.098-0.279-0.153-0.417c-0.066-0.169-0.138-0.334-0.212-0.499
			c-0.058-0.129-0.12-0.255-0.184-0.38c-0.081-0.161-0.168-0.318-0.257-0.473c-0.073-0.128-0.15-0.252-0.228-0.375
			c-0.091-0.143-0.185-0.282-0.282-0.419c-0.093-0.13-0.189-0.259-0.288-0.385c-0.095-0.12-0.192-0.239-0.293-0.355
			c-0.115-0.133-0.232-0.262-0.353-0.388c-0.097-0.101-0.197-0.201-0.298-0.298c-0.134-0.129-0.271-0.253-0.412-0.374
			c-0.102-0.088-0.207-0.174-0.313-0.257c-0.146-0.115-0.294-0.227-0.447-0.334c-0.117-0.082-0.236-0.162-0.356-0.239
			c-0.147-0.094-0.294-0.185-0.447-0.271c-0.143-0.081-0.287-0.158-0.434-0.232c-0.137-0.069-0.274-0.137-0.416-0.2
			c-0.174-0.078-0.35-0.15-0.529-0.219c-0.123-0.047-0.248-0.094-0.374-0.137c-0.2-0.067-0.403-0.126-0.607-0.182
			c-0.076-0.02-0.148-0.048-0.225-0.067L319.673,95.31c-2.993-0.734-6.16-0.049-8.583,1.854c-2.425,1.903-3.841,4.815-3.841,7.897
			v300.213c0,4.625,3.159,8.652,7.653,9.751l184.671,45.187c0.042,0.01,0.085,0.013,0.128,0.023
			c0.275,0.063,0.555,0.112,0.838,0.153c0.103,0.015,0.207,0.036,0.31,0.047c0.296,0.033,0.598,0.048,0.901,0.054
			c0.072,0.001,0.145,0.013,0.216,0.013c0.325,0,0.648-0.02,0.967-0.052c0.069-0.007,0.138-0.018,0.207-0.026
			c0.237-0.028,0.472-0.063,0.705-0.107c0.109-0.021,0.217-0.045,0.324-0.069c0.187-0.042,0.372-0.09,0.556-0.143
			c0.123-0.035,0.246-0.071,0.367-0.11c0.167-0.055,0.329-0.116,0.492-0.18c0.122-0.047,0.247-0.092,0.367-0.145
			c0.193-0.083,0.379-0.178,0.566-0.273c0.146-0.074,0.288-0.152,0.43-0.233c0.187-0.107,0.372-0.217,0.552-0.335
			c0.094-0.062,0.183-0.13,0.275-0.196c0.159-0.112,0.315-0.228,0.468-0.349c0.083-0.067,0.165-0.137,0.246-0.207
			c0.156-0.134,0.307-0.271,0.455-0.414c0.068-0.066,0.137-0.133,0.204-0.202c0.157-0.16,0.306-0.326,0.452-0.497
			c0.051-0.06,0.103-0.118,0.154-0.18c0.162-0.2,0.315-0.407,0.463-0.619c0.027-0.039,0.057-0.076,0.083-0.115
			c0.339-0.506,0.635-1.046,0.881-1.619c0.049-0.114,0.089-0.232,0.135-0.348c0.064-0.166,0.128-0.331,0.184-0.502
			c0.047-0.143,0.086-0.288,0.126-0.434c0.028-0.1,0.062-0.198,0.087-0.299c0.012-0.051,0.018-0.102,0.029-0.154
			c0.042-0.184,0.075-0.37,0.107-0.558c0.027-0.16,0.054-0.32,0.073-0.48c0.018-0.149,0.029-0.298,0.04-0.449
			c0.015-0.202,0.027-0.403,0.03-0.602c0.001-0.048,0.007-0.095,0.007-0.144V150.236
			C511.999,150.159,511.989,150.084,511.987,150.006z M491.922,437.667l-164.593-40.273V117.851l164.593,40.264V437.667z"/>
	</g>
</g>
<g>
	<g>
		<path d="M256,15.53c-5.544,0-10.039,4.495-10.039,10.039v23.09c0,5.545,4.496,10.039,10.039,10.039
			c5.544,0,10.039-4.495,10.039-10.039v-23.09C266.039,20.025,261.544,15.53,256,15.53z"/>
	</g>
</g>
<g>
	<g>
		<path d="M256,395.013c-5.544,0-10.039,4.495-10.039,10.039v23.09c0,5.545,4.496,10.039,10.039,10.039
			c5.544,0,10.039-4.495,10.039-10.039v-23.09C266.039,399.507,261.544,395.013,256,395.013z"/>
	</g>
</g>
<g>
	<g>
		<path d="M256,458.26c-5.544,0-10.039,4.495-10.039,10.039v18.131c0,5.545,4.496,10.039,10.039,10.039
			c5.544,0,10.039-4.495,10.039-10.039v-18.131C266.039,462.754,261.544,458.26,256,458.26z"/>
	</g>
</g>
<g>
	<g>
		<path d="M256,78.777c-5.544,0-10.039,4.495-10.039,10.039v23.09c0,5.545,4.496,10.039,10.039,10.039
			c5.544,0,10.039-4.495,10.039-10.039v-23.09C266.039,83.272,261.544,78.777,256,78.777z"/>
	</g>
</g>
<g>
	<g>
		<path d="M256,331.765c-5.544,0-10.039,4.495-10.039,10.039v23.09c0,5.545,4.496,10.039,10.039,10.039
			c5.544,0,10.039-4.495,10.039-10.039v-23.09C266.039,336.26,261.544,331.765,256,331.765z"/>
	</g>
</g>
<g>
	<g>
		<path d="M256,142.024c-5.544,0-10.039,4.495-10.039,10.039v23.09c0,5.545,4.496,10.039,10.039,10.039
			c5.544,0,10.039-4.495,10.039-10.039v-23.09C266.039,146.519,261.544,142.024,256,142.024z"/>
	</g>
</g>
<g>
	<g>
		<path d="M256,205.271c-5.544,0-10.039,4.495-10.039,10.039v23.09c0,5.545,4.496,10.039,10.039,10.039
			c5.544,0,10.039-4.495,10.039-10.039v-23.09C266.039,209.766,261.544,205.271,256,205.271z"/>
	</g>
</g>
<g>
	<g>
		<path d="M256,268.518c-5.544,0-10.039,4.495-10.039,10.039v23.09c0,5.545,4.496,10.039,10.039,10.039
			c5.544,0,10.039-4.495,10.039-10.039v-23.09C266.039,273.013,261.544,268.518,256,268.518z"/>
	</g>
</g>
<g>
	<g>
		<path d="M453.827,290.678c-5.544,0-10.039,4.495-10.039,10.039v98.546c0,5.545,4.496,10.039,10.039,10.039
			s10.039-4.495,10.039-10.039v-98.546C463.866,295.173,459.37,290.678,453.827,290.678z"/>
	</g>
</g>
<g>
	<g>
		<path d="M453.59,257.553c-12.919,0-12.941,20.078,0,20.078C466.509,277.631,466.53,257.553,453.59,257.553z"/>
	</g>
</g>
<g>
</g>
<g>
</g>
<g>
</g>
<g>
</g>
<g>
</g>
<g>
</g>
<g>
</g>
<g>
</g>
<g>
</g>
<g>
</g>
<g>
</g>
<g>
</g>
<g>
</g>
<g>
</g>
<g>
</g>
</svg>
