<?xml version="1.0" encoding="utf-8"?>
<!-- Generator: Adobe Illustrator 24.1.1, SVG Export Plug-In . SVG Version: 6.00 Build 0)  -->
<svg version="1.1" id="Ebene_1" xmlns="http://www.w3.org/2000/svg" xmlns:xlink="http://www.w3.org/1999/xlink" x="0px" y="0px"
	 viewBox="0 0 512 512" style="enable-background:new 0 0 512 512;" xml:space="preserve">
<g id="Page-1">
	<g id="_x30_43---Open-Folder">
		<path id="Shape" d="M46.3,484.3h348.4c18.2,0,34.2-10.1,40-25.2l75.5-194.7c4.6-13.5,0-28.1-11.8-37.6l9.5-9.6
			c4.1-4,5.2-9.8,2.7-14.6c-2.5-4.9-8-8.1-14.2-8.1H461c-2.2-36.9-19.3-71.9-48-98.9c-41.1-37.9-104.7-57.1-188.9-57.1
			c-4.4,0-7.9,2.9-8.4,6.7c-0.5,3.8,2.5,7.2,6.7,8c29,7.1,54.2,22.9,71.1,44.8H226c-8.7,0-17-3.9-21.6-10.5L182,55.8
			c-7.7-10.9-21.3-17.4-35.9-17.4H46.3C22.9,38.4,3.9,55,3.9,75.6v371.6C3.9,467.6,22.9,484.3,46.3,484.3L46.3,484.3z M266.7,55.1
			c58.3,5.4,103.1,22.3,133.9,50.5c27.7,26,43.2,60.3,43.7,95.9c-0.1,2,0.7,4,2.4,5.5c1.6,1.5,3.8,2.3,6.2,2.3h40.6L390.5,312.8
			L295,219l-9.8-9.7h49c4.7,0,8.4-3.3,8.4-7.4c0-12.5-1-24.8-3.1-37.1v-0.1c0-0.2-0.1-0.3-0.1-0.4C329.2,104,295,71.7,266.7,55.1
			L266.7,55.1z M20.9,75.6c0-12.3,11.4-22.3,25.4-22.3H146c8.7,0,17,3.9,21.6,10.5l22.4,31.5c7.7,10.9,21.3,17.4,35.9,17.4h77.8
			c8.2,14,14,29.1,17.3,44.6H150.8c-18.7,0-35.1,10.7-40.6,26.4l-16,41.8c-1.5,3.9,0.9,8.1,5.4,9.4c0.9,0.3,1.8,0.3,2.7,0.3
			c3.7,0,6.8-2,8-5.1l16.1-42.1c3.3-9.5,13.1-15.9,24.4-16h173c1,7.1,1.6,14.5,1.9,22.3H282c-6.1,0-11.5,3-14.1,7.8
			s-1.7,10.5,2.2,14.5h-85.4c-18.7,0-35.1,10.7-40.6,26.4l-66,172c-1.5,3.9,0.9,8.1,5.4,9.4c0.9,0.3,1.8,0.4,2.7,0.4
			c3.7,0,6.8-2,8-5.1l66.2-172.2c3.3-9.5,13.1-15.9,24.4-16h100.5l15.2,14.9h-50.8c-4.7,0-8.4,3.3-8.4,7.4c0,4.1,3.8,7.4,8.4,7.4
			h65.9l63.6,62.5c0.1,0.1,0.2,0.2,0.3,0.3c2.9,2.5,6.8,4,10.9,3.9c4.4,0,8.5-1.6,11.6-4.4l85.4-85.9c6.7,5.7,9.3,14.1,6.7,21.9
			l-75.4,194.4c-3.5,9.1-13.1,15.1-24,15.1H46.3c-14,0-25.4-10-25.4-22.3V75.6z"/>
		<path id="Shape_1_" d="M190.2,261.3h17c4.7,0,8.4-3.3,8.4-7.4s-3.8-7.4-8.4-7.4h-17c-4.7,0-8.4,3.3-8.4,7.4
			S185.5,261.3,190.2,261.3z"/>
		<path id="Shape_2_" d="M46.3,97.9c4.7,0,8.4-3.3,8.4-7.4V75.6c0-4.1-3.8-7.4-8.4-7.4s-8.4,3.3-8.4,7.4v14.9
			C37.8,94.5,41.6,97.9,46.3,97.9z"/>
		<path id="Shape_3_" d="M80.1,97.9c4.7,0,8.4-3.3,8.4-7.4V75.6c0-4.1-3.8-7.4-8.4-7.4c-4.7,0-8.4,3.3-8.4,7.4v14.9
			C71.7,94.5,75.5,97.9,80.1,97.9z"/>
		<path id="Shape_4_" d="M114,97.9c4.7,0,8.4-3.3,8.4-7.4V75.6c0-4.1-3.8-7.4-8.4-7.4c-4.7,0-8.4,3.3-8.4,7.4v14.9
			C105.5,94.5,109.3,97.9,114,97.9z"/>
		<path id="Shape_5_" d="M147.9,97.9c4.7,0,8.4-3.3,8.4-7.4V75.6c0-4.1-3.8-7.4-8.4-7.4s-8.4,3.3-8.4,7.4v14.9
			C139.4,94.5,143.3,97.9,147.9,97.9z"/>
	</g>
</g>
</svg>
