<?xml version="1.0" encoding="utf-8"?>
<!-- Generator: Adobe Illustrator 24.1.1, SVG Export Plug-In . SVG Version: 6.00 Build 0)  -->
<svg version="1.1" id="Ebene_1" xmlns="http://www.w3.org/2000/svg" xmlns:xlink="http://www.w3.org/1999/xlink" x="0px" y="0px"
	 viewBox="0 0 512 512" style="enable-background:new 0 0 512 512;" xml:space="preserve">
<g id="Page-1">
	<g id="_x30_43---Open-Folder">
		<path id="Shape" d="M67.7,457h311.4c16.3,0,30.6-9,35.8-22.5l67.5-174c4.1-12.1,0-25.1-10.5-33.6l8.5-8.6c3.7-3.6,4.6-8.8,2.4-13
			c-2.2-4.4-7.2-7.2-12.7-7.2h-31.6c-2-33-17.3-64.3-42.9-88.4c-36.7-33.9-93.6-51-168.8-51c-3.9,0-7.1,2.6-7.5,6
			c-0.4,3.4,2.2,6.4,6,7.2c25.9,6.3,48.4,20.5,63.5,40h-60.3c-7.8,0-15.2-3.5-19.3-9.4L189,74c-6.9-9.7-19-15.6-32.1-15.6H67.7
			c-20.9,0-37.9,14.8-37.9,33.2v332.1C29.8,442.1,46.8,457,67.7,457L67.7,457z M264.7,73.4c52.1,4.8,92.2,19.9,119.7,45.1
			c24.8,23.2,38.6,53.9,39.1,85.7c-0.1,1.8,0.6,3.6,2.1,4.9c1.4,1.3,3.4,2.1,5.5,2.1h36.3l-92.1,92.5L290,219.9l-8.8-8.7H325
			c4.2,0,7.5-2.9,7.5-6.6c0-11.2-0.9-22.2-2.8-33.2v-0.1c0-0.2-0.1-0.3-0.1-0.4C320.5,117.1,290,88.2,264.7,73.4L264.7,73.4z
			 M45,91.7c0-11,10.2-19.9,22.7-19.9h89.1c7.8,0,15.2,3.5,19.3,9.4l20,28.2c6.9,9.7,19,15.6,32.1,15.6h69.5
			c7.3,12.5,12.5,26,15.5,39.9H161.1c-16.7,0-31.4,9.6-36.3,23.6l-14.3,37.4c-1.3,3.5,0.8,7.2,4.8,8.4c0.8,0.3,1.6,0.3,2.4,0.3
			c3.3,0,6.1-1.8,7.2-4.6l14.4-37.6c2.9-8.5,11.7-14.2,21.8-14.3h154.6c0.9,6.3,1.4,13,1.7,19.9h-39.1c-5.5,0-10.3,2.7-12.6,7
			c-2.3,4.3-1.5,9.4,2,13h-76.3c-16.7,0-31.4,9.6-36.3,23.6l-59,153.7c-1.3,3.5,0.8,7.2,4.8,8.4c0.8,0.3,1.6,0.4,2.4,0.4
			c3.3,0,6.1-1.8,7.2-4.6l59.2-153.9c2.9-8.5,11.7-14.2,21.8-14.3h89.8l13.6,13.3h-45.4c-4.2,0-7.5,2.9-7.5,6.6s3.4,6.6,7.5,6.6
			h58.9l56.8,55.9c0.1,0.1,0.2,0.2,0.3,0.3c2.6,2.2,6.1,3.6,9.7,3.5c3.9,0,7.6-1.4,10.4-3.9l76.3-76.8c6,5.1,8.3,12.6,6,19.6
			l-67.4,173.8c-3.1,8.1-11.7,13.5-21.5,13.5H67.7c-12.5,0-22.7-8.9-22.7-19.9V91.7z"/>
		<path id="Shape_1_" d="M196.3,257.7h15.2c4.2,0,7.5-2.9,7.5-6.6s-3.4-6.6-7.5-6.6h-15.2c-4.2,0-7.5,2.9-7.5,6.6
			C188.8,254.8,192.1,257.7,196.3,257.7z"/>
		<path id="Shape_2_" d="M67.7,111.7c4.2,0,7.5-2.9,7.5-6.6V91.7c0-3.7-3.4-6.6-7.5-6.6s-7.5,2.9-7.5,6.6v13.3
			C60.1,108.6,63.5,111.7,67.7,111.7z"/>
		<path id="Shape_3_" d="M97.9,111.7c4.2,0,7.5-2.9,7.5-6.6V91.7c0-3.7-3.4-6.6-7.5-6.6c-4.2,0-7.5,2.9-7.5,6.6v13.3
			C90.4,108.6,93.8,111.7,97.9,111.7z"/>
		<path id="Shape_4_" d="M128.2,111.7c4.2,0,7.5-2.9,7.5-6.6V91.7c0-3.7-3.4-6.6-7.5-6.6c-4.2,0-7.5,2.9-7.5,6.6v13.3
			C120.6,108.6,124,111.7,128.2,111.7z"/>
		<path id="Shape_5_" d="M158.5,111.7c4.2,0,7.5-2.9,7.5-6.6V91.7c0-3.7-3.4-6.6-7.5-6.6s-7.5,2.9-7.5,6.6v13.3
			C150.9,108.6,154.4,111.7,158.5,111.7z"/>
	</g>
</g>
</svg>
