<svg clip-rule="evenodd" fill-rule="evenodd" height="512" stroke-linejoin="round" stroke-miterlimit="2" viewBox="0 0 513 512" width="512" xmlns="http://www.w3.org/2000/svg" xmlns:serif="http://www.serif.com/"><path d="m45.5 434.562h-9.598c-19.552 0-35.402-15.851-35.402-35.403v-332.966c0-19.553 15.85-35.403 35.402-35.403h396.196c19.552 0 35.402 15.85 35.402 35.403v11.245h9.598c19.552 0 35.402 15.851 35.402 35.403v332.966c0 19.553-15.85 35.403-35.402 35.403h-396.196c-19.552 0-35.402-15.85-35.402-35.403zm422-339.124v303.721c0 19.552-15.85 35.403-35.402 35.403h-368.598v11.245c0 9.611 7.791 17.403 17.402 17.403h396.196c9.611 0 17.402-7.792 17.402-17.403v-332.966c0-9.611-7.791-17.403-17.402-17.403zm-104.471 321.124-169.529-202.166c-2.81-3.35-6.84-5.44-11.197-5.806s-8.68 1.022-12.009 3.856l-151.794 129.242v57.471c0 9.611 7.791 17.403 17.402 17.403zm23.491 0h45.578c9.611 0 17.402-7.792 17.402-17.403v-103.313h-164.208zm62.98-138.716v-211.653c0-9.611-7.791-17.403-17.402-17.403h-396.196c-9.611 0-17.402 7.792-17.402 17.403v251.855l140.125-119.307c6.982-5.944 16.048-8.856 25.185-8.088s17.59 5.151 23.482 12.177l62.906 75.016zm-126.388-185.737c-29.674 0-53.766 24.092-53.766 53.766 0 29.675 24.092 53.766 53.766 53.766s53.766-24.091 53.766-53.766c0-29.674-24.092-53.766-53.766-53.766zm0 18c19.74 0 35.766 16.026 35.766 35.766s-16.026 35.766-35.766 35.766-35.766-16.026-35.766-35.766 16.026-35.766 35.766-35.766z"/></svg>