<?xml version="1.0" encoding="utf-8"?>
<!-- Generator: Adobe Illustrator 24.1.1, SVG Export Plug-In . SVG Version: 6.00 Build 0)  -->
<svg version="1.1" id="Capa_1" xmlns="http://www.w3.org/2000/svg" xmlns:xlink="http://www.w3.org/1999/xlink" x="0px" y="0px"
	 viewBox="0 0 358.2 358.2" style="enable-background:new 0 0 358.2 358.2;" xml:space="preserve">
<style type="text/css">
	.st0{display:none;}
</style>
<path class="st0" d="M221.9,157.2c14.4,0,26-11.7,26-26s-11.7-26-26-26c-14.4,0-26,11.7-26,26C195.9,145.6,207.6,157.2,221.9,157.2z
	 M221.9,115.6c8.6,0,15.6,7,15.6,15.6s-7,15.6-15.6,15.6c-8.6,0-15.6-7-15.6-15.6S213.3,115.6,221.9,115.6z"/>
<path class="st0" d="M350.6,175.5c-3.1-3.3-77-81.1-170.1-81.1s-167,77.8-170.1,81.1c-2.6,2.8-2.6,7,0,9.8
	c3.1,3.3,77,81.1,170.1,81.1s167-77.8,170.1-81.1C353.2,182.5,353.2,178.2,350.6,175.5z M252.2,180.4c0,39.6-32.1,71.7-71.7,71.7
	s-71.7-32.1-71.7-71.7s32.1-71.7,71.7-71.7C220,108.7,252.1,140.8,252.2,180.4z M118.6,120.8c-32.2,33.2-32.2,85.9,0,119.2
	c-34.4-13.8-65.9-34-92.8-59.6C52.7,154.8,84.1,134.6,118.6,120.8L118.6,120.8z M242.4,240c32.2-33.2,32.2-85.9,0-119.2
	c34.4,13.8,65.9,34,92.8,59.6C308.3,205.9,276.8,226.1,242.4,240z"/>
<path class="st0" d="M180.5,80c4,0,7.2-3.2,7.2-7.2V15.5c0-4-3.2-7.2-7.2-7.2s-7.2,3.2-7.2,7.2v57.4C173.3,76.8,176.5,80,180.5,80z"
	/>
<path class="st0" d="M252.2,94.3c2.1,0,4.2-0.9,5.5-2.6l35.8-43c2.5-3,2.1-7.6-0.9-10.1c-3-2.5-7.6-2.1-10.1,0.9l-35.8,43
	c-2.5,3-2.1,7.6,0.9,10.1C248.9,93.8,250.5,94.3,252.2,94.3L252.2,94.3z"/>
<path class="st0" d="M103.3,91.8c2.5,3,7.1,3.5,10.1,0.9c3-2.5,3.5-7.1,0.9-10.1l-35.8-43c-2.5-3-7.1-3.5-10.1-0.9
	c-3,2.5-3.5,7.1-0.9,10.1L103.3,91.8z"/>
<path d="M181.8,266C92.8,266,22,190.4,19.1,187.2c-2.6-2.8-2.5-7.2,0.3-9.8c2.8-2.6,7.1-2.5,9.7,0.3c0.7,0.7,69.7,74.4,152.8,74.4
	s152.1-73.7,152.8-74.4c2.6-2.8,6.9-2.9,9.7-0.3c2.8,2.6,2.9,7,0.3,9.8C341.7,190.4,270.9,266,181.8,266z"/>
<path d="M181.8,349.6c-3.8,0-6.9-3.1-6.9-7v-55.7c0-3.8,3.1-7,6.9-7c3.8,0,6.9,3.1,6.9,7v55.7C188.7,346.5,185.6,349.6,181.8,349.6z
	"/>
<path d="M284.7,321.8c-2,0-4-0.9-5.3-2.5l-34.3-41.8c-2.4-3-2-7.4,0.9-9.8c2.9-2.5,7.2-2.1,9.7,0.9l34.3,41.8c2.4,3,2,7.3-0.9,9.8
	C287.9,321.2,286.3,321.8,284.7,321.8L284.7,321.8z"/>
<path d="M79,321.8c-3.8,0-6.9-3.1-6.9-7c0-1.6,0.6-3.2,1.6-4.5l34.3-41.8c2.4-3,6.8-3.4,9.7-0.9c2.9,2.5,3.3,6.9,0.9,9.8l-34.3,41.8
	C82.9,320.8,81,321.8,79,321.8z"/>
</svg>
