<?xml version="1.0" encoding="utf-8"?>
<!-- Generator: Adobe Illustrator 24.1.1, SVG Export Plug-In . SVG Version: 6.00 Build 0)  -->
<svg version="1.1" id="Capa_1" xmlns="http://www.w3.org/2000/svg" xmlns:xlink="http://www.w3.org/1999/xlink" x="0px" y="0px"
	 viewBox="0 0 512 512" style="enable-background:new 0 0 512 512;" xml:space="preserve">
<g>
	<g>
		<g>
			<path d="M286.2,348.3c-4.5,0.4-9.1-0.6-13-2.9c-2.9-2.9-4.2-7-3.7-11.1c0.1-3.4,0.5-6.8,1.2-10.1c0.7-3.8,1.6-7.6,2.6-11.3
				l11.9-41.1c1.2-4.1,2-8.2,2.4-12.4c0-4.6,0.6-7.7,0.6-9.5c0.3-8.1-3.2-15.9-9.4-21.1c-7.6-5.9-17.1-8.7-26.7-8.1
				c-6.9,0.1-13.7,1.2-20.2,3.3c-7.1,2.2-14.7,4.9-22.6,8l-3.4,13.3c2.3-0.8,5.2-1.7,8.4-2.7c3.1-0.9,6.3-1.4,9.5-1.4
				c4.5-0.5,9.1,0.6,12.8,3.1c2.6,3.1,3.8,7,3.3,11c0,3.4-0.4,6.8-1.1,10.1c-0.7,3.5-1.6,7.3-2.7,11.2l-12,41.3
				c-1,3.8-1.7,7.7-2.3,11.6c-0.5,3.4-0.7,6.7-0.7,10.1c0,8.2,3.7,15.9,10.1,20.9c7.7,5.9,17.4,8.9,27.1,8.3
				c6.9,0.1,13.7-0.9,20.2-2.9c5.7-2,13.4-4.8,23-8.4l3.2-12.7c-2.6,1.1-5.3,2-8,2.6C293.3,348.2,289.8,348.5,286.2,348.3z"/>
			<path d="M298.9,153.6c-5.5-5.1-12.8-7.8-20.2-7.6c-7.5-0.2-14.7,2.5-20.2,7.6c-10.1,8.7-11.2,24-2.5,34.1
				c0.8,0.9,1.6,1.7,2.5,2.5c11.5,10.3,28.9,10.3,40.5,0c10.1-8.8,11.2-24.1,2.4-34.2C300.5,155.1,299.7,154.3,298.9,153.6z"/>
			<path d="M256.5,34.8C133.6,34.8,34,134.4,34,257.3s99.6,222.5,222.5,222.5S479,380.2,479,257.3S379.4,34.8,256.5,34.8z
				 M256.5,459.5c-111.7,0-202.3-90.6-202.3-202.3S144.8,55,256.5,55s202.3,90.6,202.3,202.3S368.2,459.5,256.5,459.5z"/>
		</g>
	</g>
</g>
</svg>
