<?xml version="1.0" encoding="utf-8"?>
<!-- Generator: Adobe Illustrator 24.1.1, SVG Export Plug-In . SVG Version: 6.00 Build 0)  -->
<svg version="1.1" id="Layer_1" xmlns="http://www.w3.org/2000/svg" xmlns:xlink="http://www.w3.org/1999/xlink" x="0px" y="0px"
	 viewBox="0 0 512 512" style="enable-background:new 0 0 512 512;" xml:space="preserve">
<g>
	<g>
		<g>
			<path d="M348.7,420.2c-4.5,0-8.6-1.7-11.8-4.9l-91.4-91.4l-11.4,46.4c-1.8,7.5-8.5,12.7-16.2,12.7c-2,0-3.9-0.4-5.8-1.1
				l-62.9-23.5c-8.6-3.2-13-12.8-9.8-21.5c2.4-6.5,8.7-10.9,15.6-10.9c2,0,3.9,0.4,5.8,1.1l45.3,16.9l33.8-131.4h-39.8l-38,38
				c-3.2,3.1-7.3,4.9-11.8,4.9c-4.5,0-8.6-1.7-11.8-4.9c-6.5-6.5-6.5-17.1,0-23.6l42.8-42.8c3.2-3.2,7.3-4.9,11.8-4.9h64.2l-6.2-8
				c-5.2-6.8-8-14.9-8-23.4c0-21.2,17.3-38.5,38.5-38.5c21.2,0,38.5,17.3,38.5,38.5c0,18.5-13.2,34.5-31.4,37.8l-2.8,0.5l-2.1,5.8
				l33.3,33.3h44.3c9.2,0,16.7,7.5,16.7,16.7c0,9.2-7.5,16.7-16.7,16.7h-51.3c-4.5,0-8.6-1.7-11.8-4.9l-28.1-28.1L256,287.3
				l104.5,104.5c6.5,6.5,6.5,17.1,0,23.6C357.3,418.5,353.1,420.2,348.7,420.2z"/>
		</g>
		<g>
			<path d="M418.8,285.1c-2.4,0-4.7-0.9-6.4-2.7c-1.7-1.7-2.7-4-2.7-6.5s0.9-4.7,2.7-6.5c14.5-14.5,14.5-38.2,0-52.7
				c-1.7-1.7-2.7-4-2.7-6.5c0-2.4,0.9-4.7,2.7-6.4c1.7-1.7,4-2.7,6.5-2.7s4.7,0.9,6.4,2.7c21.6,21.6,21.6,56.9,0,78.5
				C423.5,284.1,421.2,285.1,418.8,285.1L418.8,285.1z"/>
		</g>
		<g>
			<path d="M453,306.6c-2.4,0-4.7-0.9-6.5-2.7c-3.6-3.6-3.6-9.3,0-12.9c12.8-12.8,19.8-29.7,19.8-47.8c0-18.1-7-35-19.8-47.8
				c-3.6-3.6-3.6-9.3,0-12.9c1.7-1.7,4-2.7,6.5-2.7c2.4,0,4.7,0.9,6.4,2.7c16.2,16.2,25.1,37.8,25.1,60.7c0,22.9-8.9,44.5-25.1,60.7
				C457.7,305.6,455.4,306.6,453,306.6C453,306.6,453,306.6,453,306.6z"/>
		</g>
		<g>
			<path d="M93.2,285.1c-2.4,0-4.7-0.9-6.5-2.7c-10.5-10.5-16.3-24.4-16.3-39.2c0-14.8,5.8-28.8,16.3-39.2c1.7-1.7,4-2.7,6.5-2.7
				s4.7,0.9,6.5,2.7c3.6,3.6,3.6,9.3,0,12.9c-7,7-10.9,16.4-10.9,26.3c0,10,3.9,19.3,10.9,26.3c1.7,1.7,2.7,4,2.7,6.5
				s-0.9,4.7-2.7,6.4C98,284.1,95.7,285.1,93.2,285.1C93.2,285.1,93.2,285.1,93.2,285.1z"/>
		</g>
		<g>
			<path d="M59,306.6c-2.4,0-4.7-0.9-6.5-2.7c-16.2-16.2-25.1-37.8-25.1-60.7c0-22.9,8.9-44.5,25.1-60.7c1.7-1.7,4-2.7,6.5-2.7
				c2.4,0,4.7,0.9,6.4,2.7c1.7,1.7,2.7,4,2.7,6.5s-0.9,4.7-2.7,6.4c-12.8,12.8-19.8,29.7-19.8,47.8c0,18.1,7,35,19.8,47.8
				c1.7,1.7,2.7,4,2.7,6.5s-0.9,4.7-2.7,6.4C63.7,305.6,61.4,306.6,59,306.6C59,306.6,59,306.6,59,306.6z"/>
		</g>
		<g>
			<path d="M37.2,120c-5,0-9.1-4.1-9.1-9.1V38c0-5,4.1-9.1,9.1-9.1H110c5,0,9.1,4.1,9.1,9.1s-4.1,9.1-9.1,9.1H46.3v63.7
				C46.3,115.9,42.2,120,37.2,120z"/>
		</g>
		<g>
			<path d="M474.8,120c-5,0-9.1-4.1-9.1-9.1V47.1H402c-5,0-9.1-4.1-9.1-9.1s4.1-9.1,9.1-9.1h72.8c5,0,9.1,4.1,9.1,9.1v72.8
				C484,115.9,479.9,120,474.8,120z"/>
		</g>
		<g>
			<path d="M402,485.7c-5,0-9.1-4.1-9.1-9.1s4.1-9.1,9.1-9.1h63.7v-63.7c0-5,4.1-9.1,9.1-9.1s9.1,4.1,9.1,9.1v72.8
				c0,5-4.1,9.1-9.1,9.1H402z"/>
		</g>
		<g>
			<path d="M37.2,485.7c-5,0-9.1-4.1-9.1-9.1v-72.8c0-5,4.1-9.1,9.1-9.1s9.1,4.1,9.1,9.1v63.7H110c5,0,9.1,4.1,9.1,9.1
				s-4.1,9.1-9.1,9.1H37.2z"/>
		</g>
	</g>
</g>
</svg>
