<svg id="Capa_1" enable-background="new 0 0 511.998 511.998" height="512" viewBox="0 0 511.998 511.998" width="512" xmlns="http://www.w3.org/2000/svg"><g><g><path d="m486.111 307.433c-1.874-1.885-4.42-2.947-7.078-2.951-.005 0-.011 0-.016 0-2.652 0-5.195 1.054-7.071 2.929l-28.279 28.28c-3.89 3.89-3.907 10.19-.04 14.102 5.398 5.461 8.371 12.69 8.371 20.359 0 16.008-13.022 29.03-29.03 29.03h-75.75c36.554-36.761 59.178-87.387 59.178-143.2 0-46.363-16.027-91.711-45.129-127.689-28.673-35.448-68.818-60.482-113.04-70.49-5.394-1.23-10.742 2.159-11.96 7.546-1.22 5.387 2.159 10.741 7.546 11.96 39.855 9.021 76.046 31.594 101.904 63.563 26.232 32.431 40.679 73.312 40.679 115.111 0 99.412-83.813 183.197-183.198 183.197-101.016-.001-183.198-82.183-183.198-183.198 0-42.088 13.878-81.658 40.134-114.433 25.496-31.827 61.259-54.497 100.699-63.833 5.374-1.272 8.699-6.66 7.428-12.035-1.272-5.374-6.66-8.692-12.035-7.428-43.76 10.359-83.43 35.5-111.701 70.791-28.713 35.842-44.525 80.922-44.525 126.938 0 112.018 91.113 203.155 203.121 203.196.026 0 .051.004.077.004h219.77c49.092 0 89.03-39.938 89.03-89.03 0-23.646-9.193-45.92-25.887-62.719zm-63.143 131.749h-131.645c11.489-5.553 22.511-12.232 32.952-20h98.692c27.035 0 49.03-21.995 49.03-49.03 0-9.59-2.748-18.772-7.869-26.639l14.358-14.358c8.77 11.811 13.511 26.052 13.511 40.997.001 38.063-30.966 69.03-69.029 69.03z"/><path d="m68.966 248.143h45.418c22.553 0 34.303-28.2 18.306-44.195l-32.75-32.751c-9.993-9.993-27.365-7.834-34.501 4.368-8.354 14.289-14.397 29.712-17.962 45.838-2.993 13.526 7.642 26.74 21.489 26.74zm-1.961-22.423c3.115-14.092 8.397-27.571 15.698-40.061.665-1.132 2.231-1.183 3.094-.32l32.751 32.751c3.682 3.682 1.009 10.053-4.164 10.053h-45.418c-1.428-.186-2.082-.993-1.961-2.423z"/><path d="m68.126 340.811c7.402 11.757 24.331 13.563 34.131 3.763l30.433-30.434c15.981-15.998 4.262-44.195-18.306-44.195h-43.919c-14.209 0-24.975 13.88-21.268 27.637 4.116 15.273 10.485 29.818 18.929 43.229zm.718-50.063c.23-.3.747-.804 1.621-.804h43.919c5.119 0 7.907 6.399 4.163 10.053l-30.433 30.434c-1.127.878-2.148.786-3.063-.276-7.38-11.722-12.946-24.432-16.543-37.778-.157-.585-.044-1.132.336-1.629z"/><path d="m118.416 120.874c-11.771 7.402-13.623 24.342-3.805 34.16l33.49 33.49c16.011 16.011 44.195 4.214 44.195-18.307v-47.757c0-14.044-13.57-24.726-27.221-21.378-16.521 4.051-32.22 10.71-46.659 19.792zm51.909-.427c1.167.103 1.824.774 1.972 2.015v47.757c0 5.174-6.37 7.847-10.053 4.164l-33.49-33.49c-1.007-1.007-.529-2.285.311-3.088 12.62-7.938 26.339-13.758 40.773-17.297.173-.043.335-.061.487-.061z"/><path d="m122.963 393.838c13.193 7.696 27.386 13.436 42.182 17.057 13.639 3.339 27.152-7.38 27.152-21.391v-41.64c0-22.552-28.198-34.305-44.193-18.308l-29.682 29.677c-10.073 10.071-7.7 27.462 4.541 34.605zm9.599-20.462 29.682-29.677c3.675-3.672 10.053-.999 10.053 4.165v41.64c-.183 1.435-.982 2.09-2.396 1.965-12.928-3.165-25.329-8.18-36.857-14.905-1.076-.627-1.474-2.196-.482-3.188z"/><path d="m222.536 406.843c5.261 4.127 12.214 5.645 18.714 4.052 14.799-3.622 28.992-9.361 42.184-17.058 12.248-7.146 14.609-24.533 4.543-34.604l-29.682-29.682c-15.994-15.996-44.195-4.249-44.195 18.307v41.646c0 6.812 3.075 13.131 8.436 17.339zm11.564-58.984c0-5.152 6.366-7.85 10.053-4.164l29.682 29.681c.99.992.598 2.559-.479 3.187-11.529 6.728-23.931 11.742-36.86 14.907-1.414.125-2.213-.53-2.396-1.965z"/><path d="m230.081 194.148c9.594 3.971 20.872 1.728 28.214-5.612l33.492-33.493c9.817-9.819 7.968-26.752-3.799-34.158-14.44-9.087-30.142-15.749-46.668-19.801-13.65-3.352-27.221 7.336-27.221 21.378v47.768c.001 10.508 6.274 19.896 15.982 23.918zm4.019-71.687c0-1.247 1.309-2.235 2.458-1.954 14.438 3.54 28.157 9.362 40.778 17.304 1.187.749.944 2.145.309 3.089l-33.492 33.493c-3.683 3.681-10.053 1.01-10.053-4.164z"/><path d="m319.688 351.03c7.462 0 14.605-3.901 18.584-10.22 8.444-13.414 14.812-27.959 18.927-43.229 3.707-13.756-7.057-27.637-21.267-27.637h-43.919c-22.554 0-34.301 28.199-18.307 44.195l30.434 30.434c4.172 4.173 9.731 6.457 15.548 6.457zm-33.116-57.449c.453-1.094 1.89-3.636 5.44-3.636h43.919c1.188 0 2.302 1.15 1.956 2.434-3.596 13.342-9.161 26.052-16.541 37.776-.916 1.062-1.937 1.154-3.064.276l-30.434-30.434c-2.51-2.51-1.729-5.324-1.276-6.416z"/><path d="m358.92 221.403c-3.566-16.13-9.61-31.552-17.963-45.838-7.137-12.205-24.513-14.355-34.5-4.365l-32.745 32.749c-15.993 15.995-4.248 44.194 18.308 44.194h45.41c13.848 0 24.48-13.213 21.49-26.74zm-19.922 5.986c-.276.344-.772.754-1.568.754h-45.41c-5.174 0-7.846-6.371-4.165-10.054l32.745-32.749c.835-.833 2.424-.822 3.093.319 7.301 12.487 12.583 25.966 15.699 40.061.169.764-.121 1.329-.394 1.669z"/><path d="m242.583 255.982c0-21.718-17.668-39.386-39.386-39.386-21.717 0-39.385 17.668-39.385 39.386 0 21.717 17.668 39.385 39.385 39.385 21.718 0 39.386-17.668 39.386-39.385zm-58.771 0c0-10.689 8.696-19.386 19.385-19.386s19.386 8.696 19.386 19.386c0 10.688-8.696 19.385-19.386 19.385-10.688 0-19.385-8.697-19.385-19.385z"/><path d="m193.959 66.603c3.501 8.534 16.133 7.828 18.8-.92 2.582-8.468-6.821-15.935-14.486-11.591-4.33 2.454-6.232 7.903-4.314 12.511z"/></g></g></svg>