<svg id="Layer_1" height="512" viewBox="0 0 68 68" width="512" xmlns="http://www.w3.org/2000/svg" data-name="Layer 1"><path d="m64 60.61h-60a3 3 0 0 1 -3-3v-47.22a3 3 0 0 1 3-3h17.13a3 3 0 0 1 2.12.89l5.83 5.83h34.92a3 3 0 0 1 3 3v40.5a3 3 0 0 1 -3 3zm-60-51.22a1 1 0 0 0 -1 1v47.22a1 1 0 0 0 1 1h60a1 1 0 0 0 1-1v-40.5a1 1 0 0 0 -1-1h-35.33a1 1 0 0 1 -.71-.29l-6.13-6.13a1 1 0 0 0 -.7-.3z"/><path d="m66 32.72a1 1 0 0 1 -1-1v-3.39a1 1 0 0 1 2 0v3.39a1 1 0 0 1 -1 1z"/><path d="m45.92 55.61h-38.92a1 1 0 0 1 -.88-.52 1 1 0 0 1 0-1l19.5-29.65a1.05 1.05 0 0 1 1.68 0l19.46 29.62a1 1 0 0 1 0 1 1 1 0 0 1 -.84.55zm-37.07-2h35.22l-17.61-26.8z"/><path d="m61 55.61h-15.08a1 1 0 0 1 -.84-.45l-7.08-10.74a1 1 0 0 1 0-1.1l7.54-11.47a1 1 0 0 1 .84-.45 1 1 0 0 1 .84.45l14.62 22.21a1 1 0 0 1 0 1 1 1 0 0 1 -.84.55zm-14.54-2h12.69l-12.74-19.39-6.34 9.65z"/><path d="m39.8 29.71a4.64 4.64 0 1 1 4.64-4.64 4.64 4.64 0 0 1 -4.64 4.64zm0-7.28a2.64 2.64 0 1 0 2.64 2.64 2.64 2.64 0 0 0 -2.64-2.64z"/><path d="m26.46 38.8a1 1 0 0 1 -.71-.29l-2.82-2.83h-2.84a1 1 0 1 1 0-2h3.25a1.05 1.05 0 0 1 .71.29l2.41 2.42 2.41-2.39a1 1 0 0 1 .71-.29h3.25a1 1 0 0 1 0 2h-2.83l-2.82 2.83a1 1 0 0 1 -.72.26z"/></svg>