<?xml version="1.0" encoding="utf-8"?>
<!-- Generator: Adobe Illustrator 24.1.1, SVG Export Plug-In . SVG Version: 6.00 Build 0)  -->
<svg version="1.1" id="Layer_1" xmlns="http://www.w3.org/2000/svg" xmlns:xlink="http://www.w3.org/1999/xlink" x="0px" y="0px"
	 viewBox="0 0 512 512" style="enable-background:new 0 0 512 512;" xml:space="preserve">
<style type="text/css">
	.st0{fill:#010002;}
</style>
<path id="Pause" d="M370.4,406.8h-39.7c-10.9,0-19.8-9.8-19.8-21.8V145.4c0-12,8.9-21.8,19.8-21.8h39.7c10.9,0,19.8,9.8,19.8,21.8
	V385C390.2,397.1,381.3,406.8,370.4,406.8z M330.7,145.4V385h39.7l0-239.6H330.7z M471.3,406.8h-39.7c-10.9,0-19.8-9.8-19.8-21.8
	V145.4c0-12,8.9-21.8,19.8-21.8h39.7c10.9,0,19.8,9.8,19.8,21.8V385C491.1,397.1,482.2,406.8,471.3,406.8z M431.6,145.4V385h39.7
	l0-239.6H431.6z"/>
<g>
	<path class="st0" d="M262,236.7L70.8,127.9c-20.3-11.6-41,1.1-41,23.8v227.1c0,19.3,12.6,28.1,24.2,28.1c5.5,0,11.1-1.7,16.7-5.1
		l192-117.5c9.7-5.9,15.1-14.7,14.9-24.1C277.5,250.8,271.8,242.2,262,236.7z M249.9,263.3l-192,117.5c-1.3,0.8-2.3,1.2-3,1.4
		c-0.2-0.7-0.4-1.8-0.4-3.3V151.7c0-2.3,0.4-3.5,0.4-3.8c0.8,0,2.1,0.4,3.7,1.4l191.1,108.8c2.4,1.3,3.1,2.5,3.3,2.3
		C253,260.7,252.2,261.9,249.9,263.3z"/>
</g>
</svg>
