<?xml version="1.0" encoding="utf-8"?>
<!-- Generator: Adobe Illustrator 24.1.1, SVG Export Plug-In . SVG Version: 6.00 Build 0)  -->
<svg version="1.1" id="Layer_1" xmlns="http://www.w3.org/2000/svg" xmlns:xlink="http://www.w3.org/1999/xlink" x="0px" y="0px"
	 viewBox="0 0 512 512" style="enable-background:new 0 0 512 512;" xml:space="preserve">
<path id="Pause" d="M376.8,409.3h-43.9c-12.1,0-21.9-10.8-21.9-24.1v-265c0-13.3,9.8-24.1,21.9-24.1h43.9
	c12.1,0,21.9,10.8,21.9,24.1v265C398.7,398.6,388.8,409.3,376.8,409.3z M332.8,120.2v265h43.9v-265H332.8z M488.4,409.3h-43.9
	c-12.1,0-21.9-10.8-21.9-24.1v-265c0-13.3,9.8-24.1,21.9-24.1h43.9c12.1,0,21.9,10.8,21.9,24.1v265
	C510.3,398.6,500.4,409.3,488.4,409.3z M444.4,120.2v265h43.9v-265H444.4z"/>
<path d="M256.8,221.2c0,0-211.5-120.3-211.5-120.3C22.9,88,0,102,0,127.2v251.2c0,21.3,13.9,31.1,26.8,31.1c6.1,0,12.3-1.9,18.5-5.6
	l212.4-130C279.8,261,279.4,233.2,256.8,221.2z M243.5,250.6c-4.4,2.2-211,130.1-215.7,131.5c-1.3-4.4,0-250.5-0.4-255
	c0-2.5,0.4-3.9,0.4-4.2c5.3,0.7,210.7,120,215.5,121.9c2.6,1.4,3.4,2.8,3.6,2.5C246.9,247.7,246,249.1,243.5,250.6z"/>
</svg>
