<?xml version="1.0" encoding="utf-8"?>
<!-- Generator: Adobe Illustrator 24.1.1, SVG Export Plug-In . SVG Version: 6.00 Build 0)  -->
<svg version="1.1" id="Capa_1" xmlns="http://www.w3.org/2000/svg" xmlns:xlink="http://www.w3.org/1999/xlink" x="0px" y="0px"
	 viewBox="0 0 512 512" style="enable-background:new 0 0 512 512;" xml:space="preserve">
<g id="XMLID_1072_">
	<g id="XMLID_858_">
		<path id="XMLID_975_" d="M384.5,250.9c-5,0-9.1,4.1-9.1,9.1v14.5h-18.2V200c0-36.2-20-69-52.2-85.6c-4.5-2.3-9.9-0.5-12.2,3.9
			c-2.3,4.5-0.5,9.9,3.9,12.2c26.1,13.5,42.4,40.1,42.4,69.5v29.3H183V200c0-29.5,16.3-56.1,42.6-69.6c4.5-2.3,6.2-7.7,4-12.2
			c-2.3-4.5-7.7-6.2-12.2-4c-32.4,16.5-52.5,49.4-52.5,85.7v74.4h-18.1v-14.5c0-5-4.1-9.1-9.1-9.1c-5,0-9.1,4.1-9.1,9.1v23.2
			c0,0.1,0,0.2,0,0.4c0,0.2,0,0.3,0,0.5c0.2,62.9,44.5,115.6,103.5,128.8v25.2c-24.9,2.3-44.4,23.3-44.4,48.8c0,5,4.1,9.1,9.1,9.1
			h128.7c5,0,9.1-4.1,9.1-9.1c0-25.5-19.5-46.5-44.4-48.8v-25.2c59.1-13.3,103.5-66.2,103.5-129.3v-23.6
			C393.5,254.9,389.5,250.9,384.5,250.9L384.5,250.9z M339.1,247.5v18.2H183v-18.2L339.1,247.5z M339.1,283.8
			c-0.2,42.9-35.1,77.8-78,77.8s-77.9-34.9-78-77.8H339.1z M315,477.8H207.1c3.9-12.6,15.6-21.8,29.5-21.8h48.9
			C299.3,456,311.1,465.2,315,477.8z M271.9,416.1v21.8h-21.8v-21.8H271.9z M261,397.9c-60,0-109.4-46.5-114-105.3h18.2
			c4.6,48.8,45.8,87.1,95.8,87.1s91.2-38.3,95.8-87.1H375C370.4,351.5,321,397.9,261,397.9L261,397.9z"/>
		<path id="XMLID_991_" d="M348.3,121.9c2.3,0,4.6-0.9,6.4-2.7c3.5-3.5,3.5-9.3,0-12.8c-25-25-58.3-38.8-93.7-38.8
			s-68.7,13.8-93.7,38.8c-3.5,3.5-3.5,9.3,0,12.8c3.5,3.5,9.3,3.5,12.8,0c44.6-44.6,117.1-44.6,161.7,0
			C343.7,121,346,121.9,348.3,121.9z"/>
		<path id="XMLID_992_" d="M154.5,93.6c28.5-28.5,66.3-44.1,106.5-44.1s78.1,15.7,106.5,44.1c1.8,1.8,4.1,2.7,6.4,2.7
			c2.3,0,4.6-0.9,6.4-2.7c3.5-3.5,3.5-9.3,0-12.8C348.5,48.9,306.1,31.3,261,31.3c-45.1,0-87.5,17.6-119.4,49.4
			c-3.5,3.5-3.5,9.3,0,12.8C145.2,97.1,150.9,97.1,154.5,93.6L154.5,93.6z"/>
		<path id="XMLID_994_" d="M261,331.8c5,0,9.1-4.1,9.1-9.1v-5.5c0-5-4.1-9.1-9.1-9.1s-9.1,4.1-9.1,9.1v5.5
			C251.9,327.7,256,331.8,261,331.8z"/>
		<path id="XMLID_999_" d="M230,159c-1.7-1.7-4-2.7-6.4-2.7s-4.7,1-6.4,2.7c-1.7,1.7-2.7,4-2.7,6.4c0,2.4,1,4.7,2.7,6.4
			c1.7,1.7,4,2.7,6.4,2.7s4.7-1,6.4-2.7c1.7-1.7,2.7-4,2.7-6.4C232.7,163,231.7,160.7,230,159z"/>
		<path id="XMLID_1010_" d="M267.4,159c-1.7-1.7-4-2.7-6.4-2.7s-4.7,1-6.4,2.7c-1.7,1.7-2.7,4-2.7,6.4c0,2.4,1,4.7,2.7,6.4
			c1.7,1.7,4,2.7,6.4,2.7s4.7-1,6.4-2.7c1.7-1.7,2.7-4,2.7-6.4C270.1,163,269.1,160.7,267.4,159z"/>
		<path id="XMLID_1048_" d="M304.9,159c-1.7-1.7-4-2.7-6.4-2.7c-2.4,0-4.7,1-6.4,2.7c-1.7,1.7-2.7,4-2.7,6.4c0,2.4,1,4.7,2.7,6.4
			c1.7,1.7,4,2.7,6.4,2.7c2.4,0,4.7-1,6.4-2.7c1.7-1.7,2.7-4,2.7-6.4C307.5,163,306.6,160.7,304.9,159z"/>
		<path id="XMLID_1051_" d="M223.6,192.9c-2.4,0-4.7,1-6.4,2.7c-1.7,1.7-2.7,4-2.7,6.4c0,2.4,1,4.7,2.7,6.4c1.7,1.7,4,2.7,6.4,2.7
			s4.7-1,6.4-2.7c1.7-1.7,2.7-4,2.7-6.4c0-2.4-1-4.7-2.7-6.4C228.3,193.8,226,192.9,223.6,192.9z"/>
		<path id="XMLID_1053_" d="M261,192.9c-2.4,0-4.7,1-6.4,2.7c-1.7,1.7-2.7,4-2.7,6.4c0,2.4,1,4.7,2.7,6.4c1.7,1.7,4,2.7,6.4,2.7
			s4.7-1,6.4-2.7c1.7-1.7,2.7-4,2.7-6.4c0-2.4-1-4.7-2.7-6.4C265.8,193.8,263.4,192.9,261,192.9z"/>
		<path id="XMLID_1056_" d="M298.5,192.9c-2.4,0-4.7,1-6.4,2.7c-1.7,1.7-2.7,4-2.7,6.4c0,2.4,1,4.7,2.7,6.4s4,2.7,6.4,2.7
			c2.4,0,4.7-1,6.4-2.7c1.7-1.7,2.7-4,2.7-6.4c0-2.4-1-4.7-2.7-6.4C303.2,193.8,300.9,192.9,298.5,192.9z"/>
		<path id="XMLID_1059_" d="M267.6,106.4c-1.7-1.7-4-2.7-6.4-2.7c-2.4,0-4.7,1-6.4,2.7c-1.7,1.7-2.7,4-2.7,6.4c0,2.4,1,4.7,2.7,6.4
			c1.7,1.7,4,2.7,6.4,2.7c2.4,0,4.7-1,6.4-2.7c1.7-1.7,2.7-4,2.7-6.4C270.2,110.5,269.2,108.1,267.6,106.4z"/>
	</g>
</g>
</svg>
