<svg id="Capa_1" enable-background="new 0 0 511.91 511.91" height="512" viewBox="0 0 511.91 511.91" width="512" xmlns="http://www.w3.org/2000/svg"><g id="XMLID_1072_"><g id="XMLID_858_"><path id="XMLID_975_" d="m391.965 241.91c-5.523 0-10 4.477-10 10v16h-20.01v-82c0-39.9-22.055-76.037-57.559-94.306-4.912-2.528-10.941-.595-13.467 4.316-2.527 4.911-.595 10.94 4.316 13.467 28.812 14.826 46.71 44.148 46.71 76.523v32.333h-172v-32.333c0-32.479 17.982-61.844 46.928-76.635 4.918-2.513 6.868-8.537 4.354-13.455s-8.536-6.868-13.455-4.354c-35.669 18.227-57.828 54.416-57.828 94.444v82h-19.99v-16c0-5.523-4.477-10-10-10s-10 4.477-10 10v25.594c-.005.136-.021.269-.021.406 0 .183.018.362.027.543.254 69.275 49 127.325 113.993 141.916v27.788c-27.4 2.571-48.917 25.693-48.917 53.753 0 5.523 4.477 10 10 10h141.833c5.523 0 10-4.477 10-10 0-28.061-21.517-51.182-48.917-53.753v-27.788c65.164-14.629 114-72.944 114-142.458v-26c.003-5.524-4.474-10.001-9.997-10.001zm-50.01-3.666v20h-172v-20zm-.008 40c-.181 47.267-38.683 85.667-85.992 85.667s-85.81-38.4-85.992-85.667zm-26.566 213.666h-118.832c4.28-13.883 17.23-24 32.5-24h53.833c15.269 0 28.22 10.117 32.499 24zm-47.416-68v24h-24v-24zm-12-20c-66.111 0-120.49-51.181-125.603-116h20.068c5.056 53.776 50.449 96 105.525 96s100.469-42.224 105.525-96h20.089c-5.114 64.819-59.493 116-125.604 116z"/><path id="XMLID_991_" d="m352.132 99.833c2.559 0 5.119-.976 7.071-2.929 3.905-3.905 3.905-10.237 0-14.143-27.576-27.574-64.24-42.761-103.238-42.761s-75.662 15.187-103.238 42.762c-3.905 3.905-3.905 10.237 0 14.143 3.905 3.905 10.237 3.905 14.143 0 49.127-49.128 129.063-49.128 178.19 0 1.953 1.952 4.513 2.928 7.072 2.928z"/><path id="XMLID_992_" d="m138.586 68.621c31.353-31.354 73.039-48.621 117.379-48.621s86.026 17.267 117.379 48.621c1.953 1.953 4.512 2.929 7.071 2.929s5.119-.977 7.071-2.929c3.905-3.905 3.905-10.237 0-14.142-35.13-35.131-81.838-54.479-131.521-54.479-49.682 0-96.391 19.348-131.522 54.479-3.905 3.905-3.905 10.237 0 14.142 3.906 3.904 10.238 3.904 14.143 0z"/><path id="XMLID_994_" d="m255.965 331.077c5.523 0 10-4.477 10-10v-6.084c0-5.523-4.477-10-10-10s-10 4.477-10 10v6.084c0 5.523 4.477 10 10 10z"/><path id="XMLID_999_" d="m221.785 140.675c-1.86-1.86-4.44-2.93-7.07-2.93s-5.21 1.07-7.07 2.93-2.93 4.44-2.93 7.07 1.07 5.21 2.93 7.07 4.44 2.93 7.07 2.93 5.21-1.07 7.07-2.93 2.93-4.44 2.93-7.07-1.07-5.21-2.93-7.07z"/><path id="XMLID_1010_" d="m263.035 140.675c-1.86-1.86-4.44-2.93-7.07-2.93s-5.21 1.07-7.07 2.93-2.93 4.44-2.93 7.07 1.07 5.21 2.93 7.07 4.44 2.93 7.07 2.93 5.21-1.07 7.07-2.93 2.93-4.44 2.93-7.07-1.07-5.21-2.93-7.07z"/><path id="XMLID_1048_" d="m304.285 140.675c-1.86-1.86-4.44-2.93-7.07-2.93s-5.21 1.07-7.07 2.93-2.93 4.44-2.93 7.07 1.07 5.21 2.93 7.07 4.44 2.93 7.07 2.93 5.21-1.07 7.07-2.93 2.93-4.44 2.93-7.07-1.07-5.21-2.93-7.07z"/><path id="XMLID_1051_" d="m214.715 177.995c-2.63 0-5.21 1.07-7.07 2.93s-2.93 4.44-2.93 7.07 1.07 5.21 2.93 7.07 4.44 2.93 7.07 2.93 5.21-1.07 7.07-2.93 2.93-4.44 2.93-7.07-1.07-5.21-2.93-7.07-4.44-2.93-7.07-2.93z"/><path id="XMLID_1053_" d="m255.965 177.995c-2.63 0-5.21 1.07-7.07 2.93s-2.93 4.44-2.93 7.07 1.07 5.21 2.93 7.07 4.44 2.93 7.07 2.93 5.21-1.07 7.07-2.93 2.93-4.44 2.93-7.07-1.07-5.21-2.93-7.07-4.44-2.93-7.07-2.93z"/><path id="XMLID_1056_" d="m297.215 177.995c-2.63 0-5.21 1.07-7.07 2.93s-2.93 4.44-2.93 7.07 1.07 5.21 2.93 7.07 4.44 2.93 7.07 2.93 5.21-1.07 7.07-2.93 2.93-4.44 2.93-7.07-1.07-5.21-2.93-7.07-4.44-2.93-7.07-2.93z"/><path id="XMLID_1059_" d="m263.165 82.765c-1.86-1.86-4.44-2.93-7.07-2.93-2.64 0-5.21 1.07-7.07 2.93-1.87 1.86-2.93 4.44-2.93 7.07s1.06 5.21 2.93 7.07c1.86 1.86 4.44 2.93 7.07 2.93s5.21-1.07 7.07-2.93 2.93-4.44 2.93-7.07-1.07-5.21-2.93-7.07z"/></g></g></svg>