<svg id="Layer_1" enable-background="new 0 0 512 512" height="512" viewBox="0 0 512 512" width="512" xmlns="http://www.w3.org/2000/svg"><path d="m376.265 203.759 61.667-61.669h-231.281c-90.023 0-163.261 73.237-163.261 163.258 0 90.025 73.238 163.262 163.261 163.262h183.239c11.982 0 21.695 9.712 21.695 21.695s-9.713 21.695-21.695 21.695h-183.239c-113.948-.001-206.651-92.704-206.651-206.648 0-113.949 92.703-206.652 206.651-206.652h231.28l-61.665-61.665c-8.472-8.47-8.472-22.208 0-30.678 8.472-8.475 22.208-8.475 30.68 0l98.7 98.699c8.472 8.47 8.472 22.208 0 30.678l-98.7 98.703c-4.235 4.237-9.788 6.356-15.34 6.356s-11.104-2.119-15.34-6.356c-8.473-8.471-8.473-22.208-.001-30.678z"/></svg>