<?xml version="1.0" encoding="utf-8"?>
<!-- Generator: Adobe Illustrator 24.1.1, SVG Export Plug-In . SVG Version: 6.00 Build 0)  -->
<svg version="1.1" id="Layer_1" xmlns="http://www.w3.org/2000/svg" xmlns:xlink="http://www.w3.org/1999/xlink" x="0px" y="0px"
	 viewBox="0 0 512 512" style="enable-background:new 0 0 512 512;" xml:space="preserve">
<g>
	<path d="M219.6,450.5C135.5,450.5,67,380.4,67,294.3C67,208.1,135.5,138,219.6,138h184.8L351,83.4c-4.9-5-4.9-13.2,0-18.2
		c2.3-2.4,5.5-3.7,8.8-3.7s6.4,1.3,8.8,3.7l74.8,76.5c2.3,2.4,3.7,5.7,3.7,9.1s-1.3,6.7-3.7,9.1l-74.8,76.5
		c-2.3,2.4-5.5,3.7-8.8,3.7s-6.4-1.3-8.8-3.7c-4.9-5-4.9-13.2,0-18.2l53.4-54.6H219.6c-70.4,0-127.7,58.6-127.7,130.6
		c0,72,57.3,130.6,127.7,130.6h138.9c6.9,0,12.4,5.8,12.4,12.8s-5.6,12.8-12.4,12.8H219.6z"/>
</g>
</svg>
