<svg height="512pt" viewBox="-24 0 511 512" width="512pt" xmlns="http://www.w3.org/2000/svg"><path d="m25.6875 142.269531c-4.375-4.046875-10.734375-5.117187-16.195312-2.730469-5.464844 2.390626-8.992188 7.785157-8.992188 13.746094v278.863282c0 5.960937 3.527344 11.355468 8.992188 13.746093 1.933593.847657 3.976562 1.257813 6.007812 1.257813 3.703125 0 7.359375-1.371094 10.1875-3.984375l150.820312-139.433594c3.070313-2.839844 4.816407-6.835937 4.816407-11.019531s-1.746094-8.175782-4.816407-11.015625zm4.816406 255.578125v-210.257812l113.714844 105.125zm0 0"/><path d="m454.464844 139.539062c-5.457032-2.390624-11.816406-1.316406-16.195313 2.730469l-150.820312 139.429688c-3.070313 2.839843-4.816407 6.835937-4.816407 11.019531s1.746094 8.175781 4.816407 11.015625l150.820312 139.433594c2.828125 2.613281 6.480469 3.984375 10.1875 3.984375 2.03125 0 4.074219-.410156 6.007813-1.257813 5.464844-2.386719 8.992187-7.785156 8.992187-13.746093v-278.863282c0-5.960937-3.53125-11.355468-8.992187-13.746094zm-21.015625 258.308594-113.714844-105.132812 113.714844-105.125zm0 0"/><path d="m231.976562 438.984375c-8.285156 0-15 6.71875-15 15.003906v43.007813c0 8.285156 6.714844 15.003906 15 15.003906 8.289063 0 15.003907-6.71875 15.003907-15.003906v-43.007813c0-8.285156-6.714844-15.003906-15.003907-15.003906zm0 0"/><path d="m231.976562 192.933594c-8.285156 0-15 6.71875-15 15.003906v43.007812c0 8.285157 6.714844 15.003907 15 15.003907 8.289063 0 15.003907-6.71875 15.003907-15.003907v-43.007812c0-8.285156-6.714844-15.003906-15.003907-15.003906zm0 0"/><path d="m231.976562 315.960938c-8.285156 0-15 6.714843-15 15.003906v43.007812c0 8.285156 6.714844 15.003906 15 15.003906 8.289063 0 15.003907-6.71875 15.003907-15.003906v-43.007812c0-8.289063-6.714844-15.003906-15.003907-15.003906zm0 0"/><path d="m231.976562 69.910156c-8.285156 0-15 6.71875-15 15.003906v43.007813c0 8.285156 6.714844 15.003906 15 15.003906 8.289063 0 15.003907-6.71875 15.003907-15.003906v-43.007813c0-8.289062-6.714844-15.003906-15.003907-15.003906zm0 0"/><path d="m54.863281 103.320312c6.269531 5.417969 15.742188 4.726563 21.160157-1.542968 39.40625-45.613282 96.546874-71.769532 156.765624-71.769532 52.652344 0 102.953126 20 141.105469 55.519532h-2.652343c-8.289063 0-15.003907 6.71875-15.003907 15.003906s6.714844 15.003906 15.003907 15.003906h37.246093c8.289063 0 15.003907-6.71875 15.003907-15.003906v-37.25c0-8.285156-6.714844-15.003906-15.003907-15.003906-8.125 0-14.726562 6.46875-14.976562 14.535156-43.574219-40.191406-100.8125-62.8125-160.722657-62.8125-68.941406 0-134.355468 29.945312-179.46875 82.160156-5.417968 6.269532-4.730468 15.742188 1.542969 21.160156zm0 0"/></svg>