<?xml version="1.0" encoding="utf-8"?>
<!-- Generator: Adobe Illustrator 24.1.1, SVG Export Plug-In . SVG Version: 6.00 Build 0)  -->
<svg version="1.1" id="Image" xmlns="http://www.w3.org/2000/svg" xmlns:xlink="http://www.w3.org/1999/xlink" x="0px" y="0px"
	 viewBox="0 0 512 512" style="enable-background:new 0 0 512 512;" xml:space="preserve">
<style type="text/css">
	.st0{fill:#FFFFFF;}
</style>
<g>
	<g>
		<g>
			<path class="st0" d="M452.2,68.3c-4.7,0-8.5-3.8-8.5-8.5v-8.5h-8.5c-4.7,0-8.5-3.8-8.5-8.5s3.8-8.5,8.5-8.5h17
				c4.7,0,8.5,3.8,8.5,8.5v17.1C460.8,64.4,457,68.3,452.2,68.3z"/>
		</g>
		<g>
			<path class="st0" d="M452.2,426.7h-17c-4.7,0-8.5-3.8-8.5-8.5s3.8-8.5,8.5-8.5h8.5v-8.5c0-4.7,3.8-8.5,8.5-8.5s8.5,3.8,8.5,8.5
				v17.1C460.8,422.8,457,426.7,452.2,426.7z"/>
		</g>
		<g>
			<path class="st0" d="M452.3,119.5c-4.7,0-8.5-3.8-8.5-8.5V93.9c0-4.7,3.8-8.5,8.5-8.5s8.5,3.8,8.5,8.5v17.1
				C460.8,115.6,457,119.5,452.3,119.5z"/>
		</g>
		<g>
			<path class="st0" d="M452.3,170.7c-4.7,0-8.5-3.8-8.5-8.5v-17.1c0-4.7,3.8-8.5,8.5-8.5s8.5,3.8,8.5,8.5v17.1
				C460.8,166.8,457,170.7,452.3,170.7z"/>
		</g>
		<g>
			<path class="st0" d="M452.3,221.9c-4.7,0-8.5-3.8-8.5-8.5v-17.1c0-4.7,3.8-8.5,8.5-8.5s8.5,3.8,8.5,8.5v17.1
				C460.8,218,457,221.9,452.3,221.9z"/>
		</g>
		<g>
			<path class="st0" d="M179.2,119.5c-4.7,0-8.5-3.8-8.5-8.5V93.9c0-4.7,3.8-8.5,8.5-8.5s8.5,3.8,8.5,8.5v17.1
				C187.7,115.6,183.9,119.5,179.2,119.5z"/>
		</g>
		<g>
			<path class="st0" d="M179.2,170.7c-4.7,0-8.5-3.8-8.5-8.5v-17.1c0-4.7,3.8-8.5,8.5-8.5s8.5,3.8,8.5,8.5v17.1
				C187.7,166.8,183.9,170.7,179.2,170.7z"/>
		</g>
		<g>
			<path class="st0" d="M179.2,221.9c-4.7,0-8.5-3.8-8.5-8.5v-17.1c0-4.7,3.8-8.5,8.5-8.5s8.5,3.8,8.5,8.5v17.1
				C187.7,218,183.9,221.9,179.2,221.9z"/>
		</g>
		<g>
			<path class="st0" d="M452.3,273.1c-4.7,0-8.5-3.8-8.5-8.5v-17.1c0-4.7,3.8-8.5,8.5-8.5s8.5,3.8,8.5,8.5v17.1
				C460.8,269.2,457,273.1,452.3,273.1z"/>
		</g>
		<g>
			<path class="st0" d="M452.3,324.3c-4.7,0-8.5-3.8-8.5-8.5v-17.1c0-4.7,3.8-8.5,8.5-8.5s8.5,3.8,8.5,8.5v17.1
				C460.8,320.4,457,324.3,452.3,324.3z"/>
		</g>
		<g>
			<path class="st0" d="M452.3,375.5c-4.7,0-8.5-3.8-8.5-8.5v-17.1c0-4.7,3.8-8.5,8.5-8.5s8.5,3.8,8.5,8.5v17.1
				C460.8,371.6,457,375.5,452.3,375.5z"/>
		</g>
		<g>
			<path class="st0" d="M401.1,426.7H384c-4.7,0-8.5-3.8-8.5-8.5s3.8-8.5,8.5-8.5h17.1c4.7,0,8.5,3.8,8.5,8.5
				S405.8,426.7,401.1,426.7z"/>
		</g>
		<g>
			<path class="st0" d="M401.1,51.2H384c-4.7,0-8.5-3.8-8.5-8.5s3.8-8.5,8.5-8.5h17.1c4.7,0,8.5,3.8,8.5,8.5S405.8,51.2,401.1,51.2z
				"/>
		</g>
		<g>
			<path class="st0" d="M349.9,51.2h-17.1c-4.7,0-8.5-3.8-8.5-8.5s3.8-8.5,8.5-8.5h17.1c4.7,0,8.5,3.8,8.5,8.5
				S354.6,51.2,349.9,51.2z"/>
		</g>
		<g>
			<path class="st0" d="M298.7,51.2h-17.1c-4.7,0-8.5-3.8-8.5-8.5s3.8-8.5,8.5-8.5h17.1c4.7,0,8.5,3.8,8.5,8.5
				S303.4,51.2,298.7,51.2z"/>
		</g>
		<g>
			<path class="st0" d="M247.5,51.2h-17.1c-4.7,0-8.5-3.8-8.5-8.5s3.8-8.5,8.5-8.5h17.1c4.7,0,8.5,3.8,8.5,8.5
				S252.2,51.2,247.5,51.2z"/>
		</g>
		<g>
			<path class="st0" d="M179.2,68.3c-4.7,0-8.5-3.8-8.5-8.5V42.7c0-4.7,3.8-8.5,8.5-8.5h17.1c4.7,0,8.5,3.8,8.5,8.5
				s-3.8,8.5-8.5,8.5h-8.5v8.5C187.7,64.4,183.9,68.3,179.2,68.3z"/>
		</g>
	</g>
	<g>
		<g>
			<path class="st0" d="M384,477.9H59.7c-4.7,0-8.5-3.8-8.5-8.5V264.5c0-4.7,3.8-8.5,8.5-8.5H384c4.7,0,8.5,3.8,8.5,8.5v204.8
				C392.5,474,388.7,477.9,384,477.9z M68.3,460.8h307.2V273.1H68.3V460.8z"/>
		</g>
		<g>
			<path class="st0" d="M307.2,358.4c-18.8,0-34.1-15.3-34.1-34.1c0-18.8,15.3-34.1,34.1-34.1s34.1,15.3,34.1,34.1
				C341.3,343.1,326,358.4,307.2,358.4z M307.2,307.2c-9.4,0-17.1,7.7-17.1,17.1s7.7,17.1,17.1,17.1s17.1-7.7,17.1-17.1
				S316.6,307.2,307.2,307.2z"/>
		</g>
		<g>
			<path class="st0" d="M264.5,477.9c-2.2,0-4.4-0.8-6-2.5L128,344.9l-62.2,62.2c-3.3,3.3-8.7,3.3-12.1,0c-3.3-3.3-3.3-8.7,0-12.1
				l68.3-68.3c3.3-3.3,8.7-3.3,12.1,0l136.5,136.5c3.3,3.3,3.3,8.7,0,12.1C268.9,477,266.7,477.9,264.5,477.9z"/>
		</g>
		<g>
			<path class="st0" d="M366.9,477.9c-2.2,0-4.4-0.8-6-2.5l-79.3-79.3l-45.2,45.2c-3.3,3.3-8.7,3.3-12.1,0c-3.3-3.3-3.3-8.7,0-12.1
				l51.2-51.2c3.3-3.3,8.7-3.3,12.1,0l85.3,85.3c3.3,3.3,3.3,8.7,0,12.1C371.3,477,369.1,477.9,366.9,477.9z"/>
		</g>
	</g>
	<g>
		<path class="st0" d="M179.2,273.1c-4.7,0-8.5-3.8-8.5-8.5v-17.1c0-4.7,3.8-8.5,8.5-8.5s8.5,3.8,8.5,8.5v17.1
			C187.7,269.2,183.9,273.1,179.2,273.1z"/>
	</g>
	<g>
		<path class="st0" d="M110.9,170.7c-2.2,0-4.4-0.8-6-2.5c-3.3-3.3-3.3-8.7,0-12.1L133,128l-28.1-28.1c-3.3-3.3-3.3-8.7,0-12.1
			s8.7-3.3,12.1,0l34.1,34.1c3.3,3.3,3.3,8.7,0,12.1L117,168.2C115.3,169.8,113.1,170.7,110.9,170.7z"/>
	</g>
	<g>
		<path class="st0" d="M59.7,221.9c-4.7,0-8.5-3.8-8.5-8.5V128c0-4.7,3.8-8.5,8.5-8.5H145c4.7,0,8.5,3.8,8.5,8.5
			c0,4.7-3.8,8.5-8.5,8.5H68.3v76.8C68.3,218,64.4,221.9,59.7,221.9z"/>
	</g>
</g>
</svg>
