<?xml version="1.0" encoding="utf-8"?>
<!-- Generator: Adobe Illustrator 24.1.1, SVG Export Plug-In . SVG Version: 6.00 Build 0)  -->
<svg version="1.1" id="Ebene_1" xmlns="http://www.w3.org/2000/svg" xmlns:xlink="http://www.w3.org/1999/xlink" x="0px" y="0px"
	 viewBox="0 0 512 512" style="enable-background:new 0 0 512 512;" xml:space="preserve">
<g id="rotate">
	<path d="M192.2,429.6c0,5-4.1,9.1-9.1,9.1c0,0,0,0,0,0H73.4c-20.2,0-36.5-16.4-36.6-36.6V274.2l-21.9,16.4
		c-3.9,3.2-9.7,2.5-12.8-1.4c-3.2-3.9-2.5-9.7,1.4-12.8c0.2-0.1,0.3-0.2,0.5-0.4l36.6-27.4c3.2-2.4,7.7-2.4,11,0L88,276
		c4.1,2.9,5,8.6,2.1,12.7s-8.6,5-12.7,2.1c-0.1-0.1-0.2-0.2-0.3-0.2l-21.9-16.4v127.9c0,10.1,8.2,18.3,18.3,18.3H183
		C188.1,420.4,192.1,424.5,192.2,429.6C192.2,429.5,192.2,429.6,192.2,429.6z M393.2,164.5v182.8c0,15.1-12.3,27.4-27.4,27.4H146.5
		c-15.1,0-27.4-12.3-27.4-27.4V164.5c0-15.1,12.3-27.4,27.4-27.4h219.3C380.9,137.1,393.2,149.4,393.2,164.5z M137.3,164.5v176.7
		l74.9-99.9c1.9-2.2,4.6-3.5,7.5-3.7c2.9,0.1,5.7,1.5,7.3,3.9l27.4,39.6l31.7-31.7c3.6-3.6,9.3-3.6,12.9,0c0.2,0.2,0.4,0.4,0.6,0.7
		l75.2,91.9V164.5c0-5-4.1-9.1-9.1-9.1H146.5C141.4,155.4,137.3,159.5,137.3,164.5z M363.1,356.4L292,269.5l-26.9,26.9l41.5,60
		H363.1z M219.3,262.4l-70.5,94h135.6L219.3,262.4z M301.8,201.1c0-15.1,12.3-27.4,27.4-27.4c15.1,0,27.4,12.3,27.4,27.4
		c0,15.1-12.3,27.4-27.4,27.4C314.1,228.5,301.8,216.2,301.8,201.1z M320.1,201.1c0,5,4.1,9.1,9.1,9.1c5,0,9.1-4.1,9.1-9.1
		s-4.1-9.1-9.1-9.1C324.2,192,320.1,196,320.1,201.1z M510.2,223c-3-4-8.7-4.9-12.8-1.9c0,0,0,0,0,0l-21.9,16.4V109.7
		c0-20.2-16.4-36.5-36.6-36.6H329.2c-5,0-9.1,4.1-9.1,9.1s4.1,9.1,9.1,9.1h109.7c10.1,0,18.3,8.2,18.3,18.3v127.9l-21.9-16.4
		c-4-3-9.8-2.2-12.8,1.8c-3,4-2.2,9.8,1.8,12.8l36.6,27.4c3.2,2.4,7.7,2.4,11,0l36.6-27.4C512.4,232.8,513.2,227.1,510.2,223
		C510.2,223,510.2,223,510.2,223L510.2,223z"/>
</g>
</svg>
