<?xml version="1.0" encoding="utf-8"?>
<!-- Generator: Adobe Illustrator 24.1.1, SVG Export Plug-In . SVG Version: 6.00 Build 0)  -->
<svg version="1.1" id="Image" xmlns="http://www.w3.org/2000/svg" xmlns:xlink="http://www.w3.org/1999/xlink" x="0px" y="0px"
	 viewBox="0 0 512 512" style="enable-background:new 0 0 512 512;" xml:space="preserve">
<style type="text/css">
	.st0{opacity:0.3;}
</style>
<g>
	<g>
		<path d="M106.3,172.4c-1.9,0-3.7-0.8-5.1-2.4c-2.8-3.2-2.8-8.4,0-11.7l23.9-27.2l-23.9-27.2c-2.8-3.2-2.8-8.4,0-11.7
			c2.8-3.3,7.4-3.2,10.3,0l29,33c2.8,3.2,2.8,8.4,0,11.7l-29,33.1C110,171.5,108.1,172.4,106.3,172.4z"/>
	</g>
	<g>
		<path d="M62.7,221.9c-4,0-7.2-3.7-7.2-8.2v-82.6c0-4.5,3.2-8.2,7.2-8.2h72.6c4,0,7.2,3.7,7.2,8.2c0,4.5-3.2,8.2-7.2,8.2H70v74.3
			C70,218.1,66.7,221.9,62.7,221.9z"/>
	</g>
</g>
<g>
	<g>
		<g>
			<path d="M472.5,36H292.8c-13.1,0-23.7,11.6-23.7,25.9v212.6c0,3.4,2.5,6.2,5.7,6.2s5.7-2.8,5.7-6.2V102.1h204.5v288.7H280.4
				v-87.7c0-3.4-2.5-6.2-5.7-6.2s-5.7,2.8-5.7,6.2v128c0,14.3,10.6,25.9,23.7,25.9h179.7c13.1,0,23.7-11.6,23.7-25.9V61.8
				C496.2,47.6,485.6,36,472.5,36L472.5,36z M280.4,89.8v-28c0-7.5,5.6-13.5,12.4-13.5h179.7c6.8,0,12.4,6.1,12.4,13.5v28H280.4z
				 M472.5,444.7H292.8c-6.8,0-12.4-6.1-12.4-13.5v-28h204.5v28C484.9,438.6,479.4,444.7,472.5,444.7z"/>
			<path d="M391.8,417.8h-18.2c-3.1,0-5.7,2.8-5.7,6.2s2.5,6.2,5.7,6.2h18.2c3.1,0,5.7-2.8,5.7-6.2S394.9,417.8,391.8,417.8z"/>
			<ellipse cx="358.8" cy="69.1" rx="7.5" ry="8.2"/>
			<path d="M414,62.9h-31.4c-3.1,0-5.7,2.8-5.7,6.2s2.5,6.2,5.7,6.2H414c3.1,0,5.7-2.8,5.7-6.2S417.2,62.9,414,62.9z"/>
			<path d="M442.1,128.3v-3.8c0-3.4-2.5-6.2-5.7-6.2s-5.7,2.8-5.7,6.2v3.8c0,3.4,2.5,6.2,5.7,6.2S442.1,131.7,442.1,128.3z"/>
			<path d="M453.8,134.4c3.1,0,5.7-2.8,5.7-6.2v-7.5c0-3.4-2.5-6.2-5.7-6.2s-5.7,2.8-5.7,6.2v7.5
				C448.1,131.7,450.7,134.4,453.8,134.4z"/>
			<path d="M476.8,128.3V117c0-3.4-2.5-6.2-5.7-6.2s-5.7,2.8-5.7,6.2v11.3c0,3.4,2.5,6.2,5.7,6.2S476.8,131.7,476.8,128.3z"/>
			<path d="M323.7,236.8h40.8c5.6,0,10.2-5,10.2-11.1v-44.5c0-6.1-4.6-11.1-10.2-11.1h-40.8c-5.6,0-10.2,5-10.2,11.1v44.5
				C313.5,231.9,318.1,236.8,323.7,236.8L323.7,236.8z M324.8,182.5h38.6v42h-38.6V182.5z"/>
			<path d="M390.6,181.2v44.5c0,6.1,4.6,11.1,10.2,11.1h40.8c5.6,0,10.2-5,10.2-11.1v-10.1c0-3.4-2.5-6.2-5.7-6.2s-5.7,2.8-5.7,6.2
				v8.9h-38.6v-42h38.6v4.8c0,3.4,2.5,6.2,5.7,6.2s5.7-2.8,5.7-6.2v-6c0-6.1-4.6-11.1-10.2-11.1h-40.8
				C395.2,170.1,390.6,175.1,390.6,181.2z"/>
			<path d="M313.5,311.8c0,6.1,4.6,11.1,10.2,11.1h40.8c5.6,0,10.2-5,10.2-11.1v-44.5c0-6.1-4.6-11.1-10.2-11.1h-40.8
				c-5.6,0-10.2,5-10.2,11.1V311.8z M324.8,268.5h38.6v42h-38.6V268.5z"/>
			<path d="M396.3,295.7h19.3v21c0,3.4,2.5,6.2,5.7,6.2s5.7-2.8,5.7-6.2v-21h19.3c3.1,0,5.7-2.8,5.7-6.2c0-3.4-2.5-6.2-5.7-6.2
				h-19.3v-21c0-3.4-2.5-6.2-5.7-6.2s-5.7,2.8-5.7,6.2v21h-19.3c-3.1,0-5.7,2.8-5.7,6.2C390.6,292.9,393.2,295.7,396.3,295.7z"/>
		</g>
	</g>
</g>
<g class="st0">
	<g>
		<g>
			<path d="M462.8,450.2V465c0,6.8-6.1,12.4-13.5,12.4h-28V451c-2.3-0.9-4.6-1.9-6.9-3c-0.5,0.6-1.3,1.1-2.2,1.3
				c-1,0.3-2.1,0.6-3.2,0.7v27.3h-87.7c-3.4,0-6.2,2.5-6.2,5.7s2.8,5.7,6.2,5.7h128c14.3,0,25.9-10.6,25.9-23.7v-17.1
				C471.2,449.4,467.1,450.1,462.8,450.2z"/>
			<path d="M292.6,477.4H120.3V272.9h156.6c-0.3-3.8-0.8-7.6-1.4-11.3H80c-14.3,0-25.9,10.6-25.9,23.7V465
				c0,13.1,11.6,23.7,25.9,23.7h212.6c3.4,0,6.2-2.5,6.2-5.7S296,477.4,292.6,477.4z M108,477.4H80c-7.5,0-13.5-5.6-13.5-12.4V285.3
				c0-6.8,6.1-12.4,13.5-12.4h28V477.4z"/>
			<ellipse cx="87.2" cy="399" rx="8.2" ry="7.5"/>
			<path d="M81.1,343.8v31.4c0,3.1,2.8,5.7,6.2,5.7s6.2-2.5,6.2-5.7v-31.4c0-3.1-2.8-5.7-6.2-5.7S81.1,340.7,81.1,343.8z"/>
			<path d="M146.4,315.8h-3.8c-3.4,0-6.2,2.5-6.2,5.7s2.8,5.7,6.2,5.7h3.8c3.4,0,6.2-2.5,6.2-5.7S149.8,315.8,146.4,315.8z"/>
			<path d="M152.6,304.1c0-3.1-2.8-5.7-6.2-5.7h-7.5c-3.4,0-6.2,2.5-6.2,5.7s2.8,5.7,6.2,5.7h7.5
				C149.8,309.7,152.6,307.2,152.6,304.1z"/>
			<path d="M146.4,281h-11.3c-3.4,0-6.2,2.5-6.2,5.7c0,3.1,2.8,5.7,6.2,5.7h11.3c3.4,0,6.2-2.5,6.2-5.7
				C152.6,283.6,149.8,281,146.4,281z"/>
			<path d="M255,434.1v-40.8c0-5.6-5-10.2-11.1-10.2h-44.5c-6.1,0-11.1,4.6-11.1,10.2v40.8c0,5.6,5,10.2,11.1,10.2h44.5
				C250,444.3,255,439.8,255,434.1L255,434.1z M200.6,433v-38.6h42V433H200.6z"/>
			<path d="M199.4,367.2h44.5c6.1,0,11.1-4.6,11.1-10.2v-40.8c0-5.6-5-10.2-11.1-10.2h-10.1c-3.4,0-6.2,2.5-6.2,5.7
				c0,3.1,2.8,5.7,6.2,5.7h8.9v38.6h-42v-38.6h4.8c3.4,0,6.2-2.5,6.2-5.7c0-3.1-2.8-5.7-6.2-5.7h-6c-6.1,0-11.1,4.6-11.1,10.2V357
				C188.3,362.7,193.3,367.2,199.4,367.2z"/>
		</g>
	</g>
</g>
</svg>
