<?xml version="1.0" encoding="utf-8"?>
<!-- Generator: Adobe Illustrator 24.1.1, SVG Export Plug-In . SVG Version: 6.00 Build 0)  -->
<svg version="1.1" id="Layer_1" xmlns="http://www.w3.org/2000/svg" xmlns:xlink="http://www.w3.org/1999/xlink" x="0px" y="0px"
	 viewBox="0 0 469.3 469.3" style="enable-background:new 0 0 469.3 469.3;" xml:space="preserve">
<g>
	<g>
		<g>
			<path d="M453.2,96.7l-80.5-80.5c-1.9-1.9-4.4-2.9-7.1-2.9H53.4c-22.2,0-40.3,18.1-40.3,40.3v362.5c0,22.2,18.1,40.3,40.3,40.3
				h362.5c22.2,0,40.3-18.1,40.3-40.3V103.8C456.2,101.1,455.1,98.5,453.2,96.7z M113.8,33.3h221.5v120.8c0,11.1-9,20.1-20.1,20.1
				H134c-11.1,0-20.1-9-20.1-20.1V33.3z M375.6,436H93.7V254.8h281.9V436z M436,415.9c0,11.1-9,20.1-20.1,20.1h-20.1V244.7
				c0-5.6-4.5-10.1-10.1-10.1h-302c-5.6,0-10.1,4.5-10.1,10.1V436H53.4c-11.1,0-20.1-9-20.1-20.1V53.4c0-11.1,9-20.1,20.1-20.1h40.3
				v120.8c0,22.2,18.1,40.3,40.3,40.3h181.2c22.2,0,40.3-18.1,40.3-40.3V33.3h5.9l74.6,74.6V415.9z"/>
			<path d="M264.9,154.1h40.3c5.6,0,10.1-4.5,10.1-10.1V63.5c0-5.6-4.5-10.1-10.1-10.1h-40.3c-5.6,0-10.1,4.5-10.1,10.1v80.5
				C254.8,149.6,259.3,154.1,264.9,154.1z M274.9,73.6h20.1V134h-20.1V73.6z"/>
		</g>
	</g>
</g>
</svg>
