<?xml version="1.0" encoding="utf-8"?>
<!-- Generator: Adobe Illustrator 24.1.1, SVG Export Plug-In . SVG Version: 6.00 Build 0)  -->
<svg version="1.1" id="Layer_1" xmlns="http://www.w3.org/2000/svg" xmlns:xlink="http://www.w3.org/1999/xlink" x="0px" y="0px"
	 viewBox="0 0 469.3 469.3" style="enable-background:new 0 0 469.3 469.3;" xml:space="preserve">
<g>
	<g>
		<g>
			<path d="M420.9,121.7l-67.9-67.9c-1.6-1.6-3.7-2.4-6-2.4H83.5c-18.7,0-34,15.3-34,34v305.9c0,18.7,15.3,34,34,34h305.9
				c18.7,0,34-15.3,34-34V127.7C423.4,125.4,422.5,123.2,420.9,121.7z M134.5,68.2h186.9v101.9c0,9.4-7.6,17-17,17H151.5
				c-9.4,0-17-7.6-17-17L134.5,68.2L134.5,68.2z M355.4,408H117.5V255.1h237.9L355.4,408L355.4,408z M406.4,391.1
				c0,9.4-7.6,17-17,17h-17V246.6c0-4.7-3.8-8.5-8.5-8.5H109.1c-4.7,0-8.5,3.8-8.5,8.5V408h-17c-9.4,0-17-7.6-17-17V85.2
				c0-9.4,7.6-17,17-17h34v101.9c0,18.7,15.3,34,34,34h152.9c18.7,0,34-15.3,34-34V68.2h5l62.9,62.9V391.1z"/>
			<path d="M262,170.1h34c4.7,0,8.5-3.8,8.5-8.5V93.7c0-4.7-3.8-8.5-8.5-8.5h-34c-4.7,0-8.5,3.8-8.5,8.5v67.9
				C253.5,166.3,257.2,170.1,262,170.1z M270.4,102.2h17v51h-17V102.2z"/>
		</g>
	</g>
</g>
</svg>
