<?xml version="1.0" encoding="utf-8"?>
<!-- Generator: Adobe Illustrator 24.1.1, SVG Export Plug-In . SVG Version: 6.00 Build 0)  -->
<svg version="1.1" id="Layer_1" xmlns="http://www.w3.org/2000/svg" xmlns:xlink="http://www.w3.org/1999/xlink" x="0px" y="0px"
	 viewBox="0 0 512 512" style="enable-background:new 0 0 512 512;" xml:space="preserve">
<g>
	<path d="M277.3,490h-43.6c-14.7,0-27.2-11-28.9-25.7l-4.7-36.5c-9.3-3-18.2-6.7-26.7-11.1l-29.1,22.6c-11.8,9.1-28.4,8.1-38.6-2.5
		l-30.6-30.6c-10.4-10.1-11.5-26.7-2.4-38.5l22.6-29.1c-4.4-8.5-8.1-17.5-11.1-26.7l-36.6-4.7C33,305.5,22,293,22,278.3v-43.6
		c0-14.7,11-27.2,25.7-28.9l36.5-4.7c3-9.3,6.7-18.2,11.1-26.7l-22.6-29.1c-9.1-11.8-8.1-28.4,2.5-38.6L105.8,76
		c10.1-10.4,26.8-11.5,38.5-2.4l29.1,22.6c8.5-4.3,17.5-8.1,26.8-11.1l4.7-36.6C206.5,34,219,23,233.7,23h43.6
		c14.7,0,27.2,11,28.9,25.7l4.7,36.5c9.3,3,18.3,6.7,26.8,11.1l29.1-22.6c11.8-9.1,28.4-8.1,38.6,2.5l30.6,30.6
		c10.4,10.1,11.5,26.7,2.4,38.5l-22.6,29.1c4.4,8.5,8.1,17.5,11.1,26.7l36.6,4.7C478,207.5,489,220,489,234.7v43.6
		c0,14.7-11,27.2-25.7,28.9l-36.5,4.7c-3,9.3-6.7,18.2-11.1,26.7l22.6,29.1c9.1,11.8,8.1,28.4-2.5,38.6l-30.6,30.6
		c-10.1,10.4-26.8,11.5-38.5,2.4l-29.1-22.6c-8.5,4.4-17.5,8.1-26.7,11.1l-4.7,36.6C304.5,479,292,490,277.3,490L277.3,490z
		 M172.4,395.4c1.6,0,3.3,0.4,4.7,1.2c10.7,6,22.3,10.8,34.5,14.3c3.7,1.1,6.5,4.3,7,8.1l5.4,42.8c0.6,4.9,4.8,8.6,9.6,8.6h43.6
		c4.8,0,9-3.8,9.6-8.5l5.5-42.9c0.5-3.9,3.2-7,7-8.1c12.2-3.5,23.8-8.3,34.5-14.3c3.4-1.9,7.6-1.6,10.7,0.8l34.1,26.5
		c3.9,3,9.4,2.8,12.7-0.7l30.8-30.8c3.5-3.4,3.8-8.9,0.8-12.8l-26.5-34.1c-2.4-3.1-2.7-7.3-0.8-10.7c6-10.7,10.8-22.3,14.3-34.5
		c1.1-3.7,4.3-6.5,8.1-7l42.8-5.4c4.9-0.6,8.6-4.8,8.6-9.6v-43.6c0-4.8-3.8-9-8.5-9.6l-42.9-5.5c-3.9-0.5-7-3.2-8.1-7
		c-3.5-12.2-8.3-23.8-14.3-34.5c-1.9-3.4-1.6-7.6,0.8-10.7l26.5-34.1c3.1-3.9,2.8-9.4-0.6-12.7l-30.8-30.8
		c-3.4-3.5-8.9-3.8-12.8-0.8l-34.1,26.5c-3.1,2.4-7.3,2.7-10.7,0.8c-10.7-6-22.3-10.8-34.5-14.3c-3.7-1.1-6.5-4.3-7-8.1l-5.4-42.8
		c-0.6-4.9-4.8-8.7-9.6-8.7h-43.6c-4.8,0-9,3.8-9.6,8.5l-5.5,42.9c-0.5,3.9-3.2,7-7,8.1c-12.2,3.5-23.8,8.3-34.5,14.3
		c-3.4,1.9-7.6,1.6-10.7-0.8l-34.1-26.5c-3.9-3.1-9.4-2.8-12.7,0.6l-30.8,30.9c-3.5,3.4-3.8,8.9-0.8,12.8l26.5,34.1
		c2.4,3.1,2.7,7.3,0.8,10.7c-6,10.7-10.8,22.3-14.3,34.5c-1.1,3.7-4.3,6.5-8.1,7l-42.8,5.4c-4.9,0.6-8.6,4.8-8.6,9.6v43.6
		c0,4.8,3.8,9,8.5,9.6l42.9,5.5c3.9,0.5,7,3.2,8.1,7c3.5,12.2,8.3,23.8,14.3,34.5c1.9,3.4,1.6,7.6-0.8,10.7L88,379.6
		c-3.1,3.9-2.8,9.4,0.6,12.7l30.8,30.8c3.4,3.5,8.9,3.8,12.8,0.8l34.1-26.5C168.2,396.1,170.3,395.4,172.4,395.4L172.4,395.4z"/>
</g>
<g>
	<path d="M255.5,353.8c-53.6,0-97.3-43.6-97.3-97.3s43.6-97.3,97.3-97.3s97.3,43.6,97.3,97.3S309.1,353.8,255.5,353.8z M255.5,178.7
		c-42.9,0-77.8,34.9-77.8,77.8s34.9,77.8,77.8,77.8s77.8-34.9,77.8-77.8S298.4,178.7,255.5,178.7z"/>
</g>
</svg>
