<?xml version="1.0" encoding="utf-8"?>
<!-- Generator: Adobe Illustrator 24.1.1, SVG Export Plug-In . SVG Version: 6.00 Build 0)  -->
<svg version="1.1" id="Capa_1" xmlns="http://www.w3.org/2000/svg" xmlns:xlink="http://www.w3.org/1999/xlink" x="0px" y="0px"
	 viewBox="0 0 358.2 358.2" style="enable-background:new 0 0 358.2 358.2;" xml:space="preserve">
<g>
	<g>
		<g>
			<path d="M206.4,190.2v2h-20.6v-4.5c-2.3-0.9-4.6-2-6.8-3.1v83H78.4v-94h79.7c-3-1.5-6-2.9-9-4.3c-1.1-0.5-1.9-1.3-2.2-2.1H78.4
				V98.5h61c6.2-2.1,12.5-4,18.5-6.4H47.5c-1.9,0-3.4,1.4-3.4,3.2v250.2c0,1.8,1.5,3.2,3.4,3.2h162.3c1.9,0,3.4-1.4,3.4-3.2V191.1
				C211,190.8,208.7,190.5,206.4,190.2z M71.6,342.3H50.9V324h20.6V342.3z M71.6,317.6H50.9v-18.7h20.6V317.6z M71.6,292.5H50.9
				v-18.7h20.6V292.5z M71.6,267.4H50.9v-18.7h20.6V267.4z M71.6,242.3H50.9v-18.7h20.6V242.3z M71.6,217.2H50.9v-18.7h20.6V217.2z
				 M71.6,192.1H50.9v-18.7h20.6V192.1z M71.6,167H50.9v-18.7h20.6V167z M71.6,141.9H50.9v-18.7h20.6V141.9z M71.6,116.8H50.9V98.5
				h20.6V116.8z M178.9,342.3H78.4v-68.5h100.5V342.3z M206.4,342.3h-20.6V324h20.6V342.3z M206.4,317.6h-20.6v-18.7h20.6V317.6z
				 M206.4,292.5h-20.6v-18.7h20.6V292.5z M206.4,267.4h-20.6v-18.7h20.6V267.4z M206.4,242.3h-20.6v-18.7h20.6V242.3z M206.4,217.2
				h-20.6v-18.7h20.6V217.2z"/>
			<path d="M73.6,298.9c0-1.1-0.9-2-2-2H50.9c-1.1,0-2,0.9-2,2v18.7c0,1.1,0.9,2,2,2h20.6c1.1,0,2-0.9,2-2V298.9z M69.6,315.6H52.9
				v-14.7h16.6V315.6z"/>
			<path d="M73.6,273.8c0-1.1-0.9-2-2-2H50.9c-1.1,0-2,0.9-2,2v18.7c0,1.1,0.9,2,2,2h20.6c1.1,0,2-0.9,2-2V273.8z M69.6,290.5H52.9
				v-14.7h16.6V290.5z"/>
			<path d="M71.6,322H50.9c-1.1,0-2,0.9-2,2v18.3c0,1.1,0.9,2,2,2h20.6c1.1,0,2-0.9,2-2V324C73.6,322.9,72.7,322,71.6,322z
				 M69.6,340.3H52.9V326h16.6V340.3z"/>
			<path d="M183.7,317.6c0,1.1,0.9,2,2,2h20.6c1.1,0,2-0.9,2-2v-18.7c0-1.1-0.9-2-2-2h-20.6c-1.1,0-2,0.9-2,2V317.6z M187.7,300.9
				h16.6v14.7h-16.6V300.9z"/>
			<path d="M183.7,342.3c0,1.1,0.9,2,2,2h20.6c1.1,0,2-0.9,2-2V324c0-1.1-0.9-2-2-2h-20.6c-1.1,0-2,0.9-2,2V342.3z M187.7,326h16.6
				v14.3h-16.6V326z"/>
			<path d="M211.2,345.5c0,0.7-0.6,1.2-1.4,1.2H47.5c-0.8,0-1.4-0.5-1.4-1.2V95.3c0-0.7,0.6-1.2,1.4-1.2h105.1
				c2.7-0.9,5.3-1.9,7.9-3c0.1-0.3,0.3-0.7,0.5-1H47.5c-3,0-5.4,2.3-5.4,5.2v250.2c0,2.9,2.4,5.2,5.4,5.2h162.3c3,0,5.4-2.3,5.4-5.2
				V191.3c-1.3-0.1-2.7-0.3-4-0.5V345.5z"/>
			<path d="M146.6,165H80.4v-64.5h53.4c0.2-0.1,0.4-0.2,0.7-0.3c3.6-1.3,7.3-2.5,11-3.7h-67c-1.1,0-2,0.9-2,2V167c0,1.1,0.9,2,2,2
				h70.5C147.1,168.1,146.4,166.6,146.6,165z"/>
			<path d="M183.7,292.5c0,1.1,0.9,2,2,2h20.6c1.1,0,2-0.9,2-2v-18.7c0-1.1-0.9-2-2-2h-20.6c-1.1,0-2,0.9-2,2V292.5z M187.7,275.8
				h16.6v14.7h-16.6V275.8z"/>
			<path d="M178.9,271.8H78.4c-1.1,0-2,0.9-2,2v68.5c0,1.1,0.9,2,2,2h100.5c1.1,0,2-0.9,2-2v-68.5
				C180.9,272.7,180,271.8,178.9,271.8z M176.9,340.3H80.4v-64.5h96.5V340.3z"/>
			<path d="M176.9,183.5v81.9H80.4v-90H162c-2.6-1.4-5.3-2.7-8-4H78.4c-1.1,0-2,0.9-2,2v94c0,1.1,0.9,2,2,2h100.5c1.1,0,2-0.9,2-2
				v-82C179.6,184.8,178.2,184.1,176.9,183.5z"/>
			<path d="M183.7,267.4c0,1.1,0.9,2,2,2h20.6c1.1,0,2-0.9,2-2v-18.7c0-1.1-0.9-2-2-2h-20.6c-1.1,0-2,0.9-2,2V267.4z M187.7,250.7
				h16.6v14.7h-16.6V250.7z"/>
			<path d="M73.6,98.5c0-1.1-0.9-2-2-2H50.9c-1.1,0-2,0.9-2,2v18.3c0,1.1,0.9,2,2,2h20.6c1.1,0,2-0.9,2-2V98.5z M69.6,114.8H52.9
				v-14.3h16.6V114.8z"/>
			<path d="M73.6,123.3c0-1.1-0.9-2-2-2H50.9c-1.1,0-2,0.9-2,2v18.7c0,1.1,0.9,2,2,2h20.6c1.1,0,2-0.9,2-2V123.3z M69.6,139.9H52.9
				v-14.7h16.6V139.9z"/>
			<path d="M73.6,248.7c0-1.1-0.9-2-2-2H50.9c-1.1,0-2,0.9-2,2v18.7c0,1.1,0.9,2,2,2h20.6c1.1,0,2-0.9,2-2V248.7z M69.6,265.4H52.9
				v-14.7h16.6V265.4z"/>
			<path d="M204.4,189.9v0.2h-16.6v-1.8c-1.4-0.5-2.7-1-4-1.6v5.4c0,1.1,0.9,2,2,2h20.6c1.1,0,2-0.9,2-2v-1.7
				C207.1,190.2,205.7,190.1,204.4,189.9z"/>
			<path d="M183.7,217.2c0,1.1,0.9,2,2,2h20.6c1.1,0,2-0.9,2-2v-18.7c0-1.1-0.9-2-2-2h-20.6c-1.1,0-2,0.9-2,2V217.2z M187.7,200.5
				h16.6v14.7h-16.6V200.5z"/>
			<path d="M73.6,223.6c0-1.1-0.9-2-2-2H50.9c-1.1,0-2,0.9-2,2v18.7c0,1.1,0.9,2,2,2h20.6c1.1,0,2-0.9,2-2V223.6z M69.6,240.3H52.9
				v-14.7h16.6V240.3z"/>
			<path d="M73.6,198.5c0-1.1-0.9-2-2-2H50.9c-1.1,0-2,0.9-2,2v18.7c0,1.1,0.9,2,2,2h20.6c1.1,0,2-0.9,2-2V198.5z M69.6,215.2H52.9
				v-14.7h16.6V215.2z"/>
			<path d="M183.7,242.3c0,1.1,0.9,2,2,2h20.6c1.1,0,2-0.9,2-2v-18.7c0-1.1-0.9-2-2-2h-20.6c-1.1,0-2,0.9-2,2V242.3z M187.7,225.6
				h16.6v14.7h-16.6V225.6z"/>
			<path d="M73.6,148.3c0-1.1-0.9-2-2-2H50.9c-1.1,0-2,0.9-2,2V167c0,1.1,0.9,2,2,2h20.6c1.1,0,2-0.9,2-2V148.3z M69.6,165H52.9
				v-14.7h16.6V165z"/>
			<path d="M73.6,173.4c0-1.1-0.9-2-2-2H50.9c-1.1,0-2,0.9-2,2v18.7c0,1.1,0.9,2,2,2h20.6c1.1,0,2-0.9,2-2V173.4z M69.6,190.1H52.9
				v-14.7h16.6V190.1z"/>
		</g>
	</g>
</g>
<path d="M221.9,157.2c14.4,0,26-11.7,26-26s-11.7-26-26-26c-14.4,0-26,11.7-26,26C195.9,145.6,207.6,157.2,221.9,157.2z
	 M221.9,115.6c8.6,0,15.6,7,15.6,15.6s-7,15.6-15.6,15.6c-8.6,0-15.6-7-15.6-15.6S213.3,115.6,221.9,115.6z"/>
<path d="M345.5,127.6c-2.2-2.4-56-58.9-123.6-58.9s-121.4,56.5-123.6,58.9c-1.9,2-1.9,5.1,0,7.1c2.2,2.4,56,58.9,123.6,58.9
	s121.4-56.5,123.6-58.9C347.4,132.7,347.4,129.6,345.5,127.6z M274,131.2c0,28.8-23.3,52.1-52.1,52.1s-52.1-23.3-52.1-52.1
	s23.3-52.1,52.1-52.1C250.7,79.1,274,102.4,274,131.2z M177,87.9c-23.4,24.1-23.4,62.4,0,86.6c-25-10-47.9-24.7-67.4-43.3
	C129.1,112.6,152,97.9,177,87.9L177,87.9z M266.9,174.5c23.4-24.1,23.4-62.4,0-86.6c25,10,47.9,24.7,67.4,43.3
	C314.8,149.7,291.9,164.4,266.9,174.5z"/>
<path d="M221.9,58.3c2.9,0,5.2-2.3,5.2-5.2V11.4c0-2.9-2.3-5.2-5.2-5.2s-5.2,2.3-5.2,5.2v41.7C216.7,55.9,219.1,58.3,221.9,58.3z"/>
<path d="M274,68.7c1.5,0,3-0.7,4-1.9l26-31.2c1.8-2.2,1.5-5.5-0.7-7.3c-2.2-1.8-5.5-1.5-7.3,0.7l-26,31.2c-1.8,2.2-1.5,5.5,0.7,7.3
	C271.6,68.3,272.8,68.7,274,68.7L274,68.7z"/>
<path d="M165.9,66.8c1.8,2.2,5.1,2.5,7.3,0.7c2.2-1.8,2.5-5.1,0.7-7.3l-26-31.2c-1.8-2.2-5.1-2.5-7.3-0.7c-2.2,1.8-2.5,5.1-0.7,7.3
	L165.9,66.8z"/>
</svg>
