<svg height="512pt" viewBox="0 -38 512.00017 512" width="512pt" xmlns="http://www.w3.org/2000/svg"><path d="m81.953125 92.097656c2.558594 0 5.117187-.976562 7.070313-2.929687l.101562-.097657c3.90625-3.90625 3.90625-10.242187 0-14.148437-3.90625-3.902344-10.238281-3.902344-14.144531 0-.007813.011719-.066407.070313-.078125.078125l-.023438.023438c-3.902344 3.90625-3.902344 10.238281.003906 14.144531 1.953126 1.953125 4.511719 2.929687 7.070313 2.929687zm0 0"/><path d="m509.84375 222.769531c-7.335938-55.710937-33.160156-108.179687-72.722656-147.742187-48.382813-48.382813-112.703125-75.027344-181.121094-75.027344-53.46875 0-104.660156 16.277344-148.042969 47.070312-4.503906 3.195313-5.566406 9.441407-2.367187 13.945313 3.195312 4.503906 9.4375 5.5625 13.945312 2.367187 3.222656-2.292968 6.5-4.484374 9.816406-6.597656l24.875 43.085938c-10.714843 7.011718-20.796874 15.171875-30.0625 24.4375-9.179687 9.179687-17.339843 19.285156-24.382812 30.09375l-43.082031-24.871094c4.492187-7.085938 9.363281-13.941406 14.609375-20.53125 3.441406-4.320312 2.730468-10.613281-1.589844-14.054688-4.320312-3.441406-10.613281-2.730468-14.054688 1.589844-28.910156 36.300782-47.414062 79.949219-53.507812 126.230469-7.308594 55.503906 4.097656 112.792969 32.101562 161.296875 12.28125 21.371094 39.660157 28.769531 61.03125 16.484375 21.371094-12.277344 28.765626-39.65625 16.476563-61.046875-18.503906-32.046875-25.726563-68.40625-20.890625-105.136719.371094-2.828125.824219-5.632812 1.332031-8.417969l103.261719 39.058594c1.882812 12.988282 7.867188 25.019532 17.257812 34.414063 11.554688 11.554687 26.917969 17.917969 43.257813 17.917969s31.703125-6.363282 43.253906-17.917969c23.851563-23.855469 23.851563-62.664063 0-86.515625-11.554687-11.554688-26.914062-17.917969-43.253906-17.917969s-31.703125 6.363281-43.257813 17.917969c-1.683593 1.6875-3.269531 3.472656-4.746093 5.339844l-108.972657-17.804688c8.191407-23.117188 21.472657-44.15625 39.300782-61.984375 31.433594-31.433594 73.234375-48.746094 117.691406-48.746094 44.460938 0 86.257812 17.3125 117.691406 48.746094 26.222656 26.222656 42.625 59.386719 47.433594 95.910156 4.835938 36.734375-2.386719 73.089844-20.898438 105.15625-12.28125 21.371094-4.886718 48.75 16.484376 61.03125 7.003906 4.023438 14.652343 5.9375 22.199218 5.9375 15.492188 0 30.570313-8.050781 38.820313-22.40625 28.015625-48.519531 39.421875-105.808593 32.113281-161.3125zm-253.859375-7.78125c10.996094 0 21.335937 4.285157 29.113281 12.0625 16.050782 16.050781 16.050782 42.167969 0 58.222657-7.777344 7.777343-18.117187 12.058593-29.113281 12.058593s-21.335937-4.28125-29.113281-12.058593c-3.363282-3.367188-6.078125-7.238282-8.074219-11.445313l28.527344 10.792969c2.992187 1.132812 6.105469 1.695312 9.234375 1.695312 4.257812 0 8.542968-1.042968 12.578125-3.113281 7.574219-3.882813 13.410156-11.109375 15.613281-19.335937 2.203125-8.222657.761719-17.398438-3.855469-24.546876-4.265625-6.605468-10.722656-10.917968-18.179687-12.136718l-30.101563-4.917969c6.820313-4.722656 14.898438-7.277344 23.371094-7.277344zm-45.066406 24c.023437.007813.046875.011719.070312.015625l48.503907 7.921875c2.3125.378907 3.777343 1.976563 4.601562 3.246094 1.578125 2.441406 2.089844 5.707031 1.335938 8.519531-.753907 2.816406-2.828126 5.386719-5.414063 6.710938-1.347656.691406-3.414063 1.339844-5.609375.511718l-45.96875-17.386718c-.007812-.003906-.019531-.007813-.027344-.011719l-46.234375-17.488281zm-116.484375 110.496094c6.785156 11.808594 2.699218 26.9375-9.109375 33.722656-11.808594 6.789063-26.9375 2.703125-33.734375-9.125-19.304688-33.4375-29.929688-70.160156-31.457032-107.933593h49.613282c1.601562 29.199218 10.019531 57.933593 24.6875 83.335937zm-32.726563-135.074219 11.535157 4.363282c-.882813 4.292968-1.625 8.625-2.199219 12.980468-.628907 4.78125-1.0625 9.582032-1.3125 14.390625h-49.558594c.304687-6.902343.902344-13.832031 1.816406-20.765625 3.632813-27.582031 12.042969-54.140625 24.730469-78.511718l43.054688 24.855468c-4.1875 8.214844-7.765626 16.726563-10.699219 25.457032l-12.214844-1.996094c-5.066406-.828125-9.945313 2.320312-11.273437 7.28125-1.328126 4.964844 1.316406 10.125 6.121093 11.945312zm204.292969-144.4375v-49.746094c35.132812 1.453126 68.886719 10.558594 99.355469 26.511719l-24.886719 43.101563c-22.949219-11.6875-48.203125-18.488282-74.46875-19.867188zm-119.347656-23.222656c30.625-16.046875 64.359375-25.085938 99.347656-26.53125v49.757812c-26.265625 1.378907-51.519531 8.179688-74.46875 19.863282zm211.121094 53.121094 24.890624-43.109375c14.414063 9.195312 27.929688 20.027343 40.3125 32.40625 12.371094 12.375 23.191407 25.886719 32.382813 40.328125l-43.140625 24.910156c-7.042969-10.808594-15.203125-20.917969-24.382812-30.097656-9.265626-9.265625-19.34375-17.425782-30.0625-24.4375zm64.453124 71.851562 43.136719-24.902344c12.632813 24.230469 20.976563 50.675782 24.648438 78.558594.914062 6.933594 1.511719 13.859375 1.816406 20.765625h-49.558594c-.25-4.804687-.683593-9.609375-1.3125-14.390625-2.753906-20.925781-9.164062-41.261718-18.730469-60.03125zm38.175782 202.375c-6.789063 11.8125-21.917969 15.894532-33.726563 9.109375-11.808593-6.785156-15.894531-21.914062-9.117187-33.707031 14.671875-25.414062 23.09375-54.152344 24.695312-83.355469h49.613282c-1.527344 37.777344-12.152344 74.503907-31.464844 107.953125zm0 0"/><path d="m316.007812 354.496094h-120.015624c-5.523438 0-10 4.476562-10 10v32.003906c0 5.523438 4.476562 10 10 10h120.015624c5.523438 0 10.003907-4.476562 10.003907-10v-32.003906c0-5.523438-4.480469-10-10.003907-10zm-10 32.003906h-100.015624v-12.003906h100.015624zm0 0"/><path d="m108.175781 246.140625c-5.523437 0-10 4.480469-10 10.003906 0 5.523438 4.476563 10 10 10h.234375c5.527344 0 10.003906-4.476562 10.003906-10 0-5.523437-4.476562-10.003906-10.003906-10.003906zm0 0"/><path d="m177.109375 119.46875c-4.785156 2.757812-6.429687 8.871094-3.671875 13.65625l.117188.207031c1.851562 3.210938 5.21875 5.007813 8.675781 5.007813 1.695312 0 3.410156-.429688 4.984375-1.335938 4.785156-2.757812 6.429687-8.875 3.671875-13.660156l-.117188-.203125c-2.757812-4.789063-8.875-6.429687-13.660156-3.671875zm0 0"/><path d="m334.917969 119.484375c-4.789063-2.761719-10.898438-1.113281-13.65625 3.671875l-.117188.207031c-2.757812 4.785157-1.113281 10.898438 3.671875 13.65625 1.574219.90625 3.289063 1.339844 4.980469 1.339844 3.460937 0 6.824219-1.796875 8.675781-5.011719l.121094-.207031c2.757812-4.785156 1.109375-10.898437-3.675781-13.65625zm0 0"/><path d="m403.585938 266.179688h.238281c5.519531 0 10-4.476563 10-10 0-5.523438-4.480469-10.003907-10-10.003907h-.238281c-5.523438 0-10 4.480469-10 10.003907 0 5.523437 4.476562 10 10 10zm0 0"/><path d="m291.007812 416.503906h-41.042968c-5.523438 0-10 4.480469-10 10.003906 0 5.519532 4.476562 10 10 10h41.042968c5.519532 0 10-4.480468 10-10 0-5.523437-4.480468-10.003906-10-10.003906zm0 0"/><path d="m221.230469 416.5h-.234375c-5.523438 0-10.003906 4.480469-10.003906 10.003906 0 5.523438 4.480468 10 10.003906 10h.234375c5.523437 0 10-4.476562 10-10 0-5.523437-4.476563-10.003906-10-10.003906zm0 0"/></svg>