<svg id="Capa_1" enable-background="new 0 0 509.15 509.15" height="512" viewBox="0 0 509.15 509.15" width="512" xmlns="http://www.w3.org/2000/svg"><g><path d="m323.563 413.037c77.197 0 140.001-62.804 140.001-140.001s-62.804-140.002-140.001-140.002-140.002 62.804-140.002 140.002 62.805 140.001 140.002 140.001zm-104.24-147.502h-20.531c1.715-28.828 13.242-55.054 31.283-75.381l14.476 14.476c1.464 1.465 3.384 2.197 5.303 2.197s3.839-.732 5.303-2.197c2.929-2.929 2.929-7.678 0-10.606l-14.476-14.476c20.327-18.041 46.553-29.568 75.381-31.283v20.531c0 4.142 3.357 7.5 7.5 7.5s7.5-3.358 7.5-7.5v-20.531c28.828 1.715 55.054 13.242 75.38 31.283l-14.476 14.476c-2.929 2.929-2.929 7.678 0 10.606 1.465 1.464 3.385 2.197 5.304 2.197s3.839-.732 5.304-2.197l14.475-14.476c18.04 20.327 29.568 46.552 31.282 75.38h-20.531c-4.143 0-7.5 3.358-7.5 7.5s3.357 7.5 7.5 7.5h20.531c-1.715 28.828-13.242 55.054-31.283 75.38l-14.475-14.475c-2.93-2.929-7.678-2.929-10.607 0s-2.929 7.678 0 10.606l14.476 14.476c-20.327 18.041-46.552 29.568-75.38 31.283v-20.531c0-4.142-3.357-7.5-7.5-7.5s-7.5 3.358-7.5 7.5v20.531c-28.829-1.715-55.054-13.242-75.381-31.283l14.476-14.475c2.929-2.929 2.929-7.678 0-10.606-2.93-2.93-7.678-2.929-10.606 0l-14.476 14.475c-18.041-20.327-29.568-46.552-31.283-75.381h20.531c4.142 0 7.5-3.358 7.5-7.5 0-4.141-3.358-7.499-7.5-7.499z"/><path d="m414.502 417.388c-27.184 17.163-58.63 26.234-90.939 26.234-94.062 0-170.587-76.525-170.587-170.587 0-38.081 12.27-74.099 35.482-104.161 2.531-3.278 1.926-7.988-1.353-10.52-3.278-2.531-7.988-1.926-10.52 1.353-25.259 32.711-38.609 71.899-38.609 113.328 0 102.333 83.254 185.587 185.587 185.587 35.148 0 69.364-9.873 98.947-28.551 3.503-2.211 4.549-6.843 2.338-10.346-2.212-3.502-6.843-4.547-10.346-2.337z"/><path d="m368.795 93.033v-28.43c0-7.762-6.315-14.076-14.076-14.076h-62.314c-7.762 0-14.076 6.314-14.076 14.076v28.422c-29.825 7.472-57.496 22.296-80.527 43.528-3.045 2.808-3.238 7.552-.431 10.598 2.808 3.045 7.553 3.239 10.598.431 31.571-29.105 72.623-45.134 115.593-45.134 94.062 0 170.587 76.525 170.587 170.587 0 48.281-20.597 94.511-56.51 126.833-3.078 2.771-3.328 7.513-.557 10.592 1.48 1.646 3.524 2.482 5.576 2.482 1.788 0 3.582-.635 5.016-1.925 39.068-35.163 61.475-85.456 61.475-137.983.001-86.734-59.812-159.753-140.354-180.001zm-75.465-3.124v-24.382h60.466v24.397c-9.842-1.62-19.939-2.476-30.232-2.476-10.207 0-20.313.832-30.234 2.461z"/><path d="m323.563 278.288c2.814 0 5.262-1.551 6.545-3.843l25.872-25.872c2.929-2.929 2.929-7.678 0-10.607s-7.677-2.929-10.608 0l-14.31 14.309v-36.524c0-4.142-3.357-7.5-7.5-7.5s-7.5 3.358-7.5 7.5v55.035c.001 4.144 3.358 7.502 7.501 7.502z"/><path d="m110.675 274.728c0-4.142-3.358-7.5-7.5-7.5h-95.675c-4.142 0-7.5 3.358-7.5 7.5s3.358 7.5 7.5 7.5h95.675c4.142 0 7.5-3.357 7.5-7.5z"/><path d="m37.414 238.55h75.762c4.142 0 7.5-3.358 7.5-7.5s-3.358-7.5-7.5-7.5h-75.762c-4.142 0-7.5 3.358-7.5 7.5s3.357 7.5 7.5 7.5z"/><path d="m123.175 179.871h-62.133c-4.142 0-7.5 3.358-7.5 7.5s3.358 7.5 7.5 7.5h62.133c4.142 0 7.5-3.358 7.5-7.5 0-4.143-3.358-7.5-7.5-7.5z"/><path d="m120.675 315.021c0-4.142-3.358-7.5-7.5-7.5h-75.761c-4.142 0-7.5 3.358-7.5 7.5s3.358 7.5 7.5 7.5h75.762c4.141 0 7.499-3.358 7.499-7.5z"/><path d="m123.175 351.2h-62.133c-4.142 0-7.5 3.358-7.5 7.5s3.358 7.5 7.5 7.5h62.133c4.142 0 7.5-3.358 7.5-7.5s-3.358-7.5-7.5-7.5z"/></g></svg>