<?xml version="1.0" encoding="iso-8859-1"?>
<!-- Generator: Adobe Illustrator 19.0.0, SVG Export Plug-In . SVG Version: 6.00 Build 0)  -->
<svg version="1.1" id="Layer_1" xmlns="http://www.w3.org/2000/svg" xmlns:xlink="http://www.w3.org/1999/xlink" x="0px" y="0px"
	 viewBox="0 0 512.001 512.001" style="enable-background:new 0 0 512.001 512.001;" xml:space="preserve">
<g>
	<g>
		<path d="M438.852,119.191c-3.293-2.163-7.692-1.453-10.137,1.635L216.133,389.353c-6.305,7.919-9.149,17.821-8.007,27.879
			s6.132,19.071,14.051,25.376c6.775,5.394,14.998,8.255,23.531,8.255c1.442,0,2.894-0.082,4.347-0.246
			c10.058-1.142,19.071-6.132,25.376-14.051c1.671-2.1,3.91-5.765,4.342-6.479c0.068-0.112,0.133-0.225,0.194-0.341l161.409-300.601
			C443.24,125.672,442.145,121.353,438.852,119.191z M266.665,422.372c-0.884,1.449-2.373,3.766-3.132,4.721
			c-3.775,4.742-9.17,7.73-15.193,8.413c-6.022,0.682-11.95-1.02-16.691-4.795c-4.742-3.776-7.73-9.17-8.413-15.193
			c-0.683-6.022,1.019-11.95,4.808-16.707l159.364-201.303L266.665,422.372z"/>
	</g>
</g>
<g>
	<g>
		<path d="M447.789,153.954c-2.736-3.186-7.537-3.549-10.723-0.813c-3.186,2.736-3.55,7.538-0.813,10.723
			c37.387,43.519,58.688,98.616,60.423,155.899H432.27c-4.062-28.579-13.229-55.847-27.291-81.145
			c-2.04-3.67-6.67-4.992-10.34-2.951c-3.67,2.04-4.992,6.67-2.951,10.34c14.186,25.519,23.045,53.181,26.334,82.216
			c0.435,3.844,3.687,6.748,7.555,6.748h78.82c4.199,0,7.604-3.405,7.604-7.604C512,263.738,489.196,202.152,447.789,153.954z"/>
	</g>
</g>
<g>
	<g>
		<path d="M402.926,112.442c-24.788-18.155-52.237-31.756-81.582-40.426c-24.409-7.218-49.831-10.878-75.561-10.878
			c-32.677,0-64.59,5.852-94.854,17.395c-3.924,1.496-5.892,5.891-4.395,9.814c1.497,3.923,5.893,5.892,9.814,4.394
			c28.526-10.88,58.615-16.396,89.434-16.396c24.27,0,48.241,3.45,71.25,10.254c27.662,8.172,53.537,20.994,76.907,38.111
			c1.354,0.992,2.928,1.47,4.487,1.47c2.341,0,4.651-1.078,6.141-3.112C407.048,119.681,406.314,114.923,402.926,112.442z"/>
	</g>
</g>
<g>
	<g>
		<path d="M361.297,182.159c-20.056-19.122-43.042-34.435-68.318-45.513c-29.969-13.14-61.885-19.802-94.863-19.802
			c-53.348,0-104.152,17.872-145.093,49.698c21.881-26.205,49.043-47.913,79.961-63.491c3.75-1.89,5.259-6.462,3.369-10.213
			c-1.889-3.75-6.461-5.258-10.213-3.369C69.799,117.86,25.217,165.441,0.605,223.449c-1.533,3.612-0.065,7.797,3.388,9.661
			c1.145,0.618,2.384,0.914,3.607,0.914c2.467,0,4.873-1.201,6.329-3.382c41.224-61.734,110.079-98.59,184.187-98.59
			c30.863,0,60.725,6.231,88.756,18.522c23.65,10.367,45.159,24.697,63.93,42.592c3.04,2.898,7.853,2.784,10.751-0.257
			C364.451,189.87,364.337,185.057,361.297,182.159z"/>
	</g>
</g>
<g>
	<g>
		<path d="M247.036,409.061c-2.749-1.727-6.371-1.515-8.888,0.543c-5.406,4.419-2.147,13.486,4.818,13.486
			c3.449,0,6.538-2.42,7.379-5.761C251.133,414.195,249.775,410.782,247.036,409.061z"/>
	</g>
</g>
<g>
</g>
<g>
</g>
<g>
</g>
<g>
</g>
<g>
</g>
<g>
</g>
<g>
</g>
<g>
</g>
<g>
</g>
<g>
</g>
<g>
</g>
<g>
</g>
<g>
</g>
<g>
</g>
<g>
</g>
</svg>
