<?xml version="1.0" encoding="utf-8"?>
<!-- Generator: Adobe Illustrator 24.1.1, SVG Export Plug-In . SVG Version: 6.00 Build 0)  -->
<svg version="1.1" id="Layer_1" xmlns="http://www.w3.org/2000/svg" xmlns:xlink="http://www.w3.org/1999/xlink" x="0px" y="0px"
	 viewBox="0 0 512 512" style="enable-background:new 0 0 512 512;" xml:space="preserve">
<g>
	<path d="M155.5,450.5c-6.9,0-12.4-5.8-12.4-12.8s5.6-12.8,12.4-12.8h138.9c70.4,0,127.7-58.6,127.7-130.6
		c0-72-57.3-130.6-127.7-130.6H109.6l53.4,54.6c4.9,5,4.9,13.2,0,18.2c-2.3,2.4-5.5,3.7-8.8,3.7c-3.3,0-6.4-1.3-8.8-3.7L70.7,160
		c-2.3-2.4-3.7-5.7-3.7-9.1s1.3-6.7,3.7-9.1l74.8-76.5c2.3-2.4,5.5-3.7,8.8-3.7c3.3,0,6.4,1.3,8.8,3.7c4.9,5,4.9,13.2,0,18.2
		L109.6,138h184.8c84.1,0,152.6,70.1,152.6,156.2c0,41.7-15.9,80.9-44.8,110.5c-28.9,29.5-67.1,45.8-107.8,45.8H155.5z"/>
</g>
</svg>
