<svg id="Layer_1" enable-background="new 0 0 512 512" height="512" viewBox="0 0 512 512" width="512" xmlns="http://www.w3.org/2000/svg"><path d="m511.999 305.345c0 113.948-92.703 206.655-206.649 206.655h-183.24c-11.981 0-21.695-9.712-21.695-21.695s9.714-21.695 21.695-21.695h183.24c90.023 0 163.259-73.237 163.259-163.257 0-90.025-73.237-163.261-163.259-163.261h-231.28l61.667 61.665c8.47 8.47 8.472 22.207 0 30.678-4.237 4.237-9.788 6.356-15.341 6.356s-11.104-2.119-15.341-6.356l-98.7-98.698c-4.068-4.068-6.354-9.585-6.354-15.339s2.286-11.271 6.354-15.339l98.7-98.703c8.475-8.475 22.207-8.475 30.682 0 8.47 8.47 8.472 22.207 0 30.678l-61.667 61.669h231.28c113.946 0 206.649 92.698 206.649 206.642z"/></svg>